M48
; DRILL file KiCad 10.0.6 date 2026-09-14T13:22:56
; FORMAT={-:-/ absolute / metric / decimal}
; #@! TF.CreationDate,2026-09-14T13:22:56+02:00
; #@! TF.GenerationSoftware,Kicad,Pcbnew,10.0.6
; #@! TF.FileFunction,NonPlated,1,2,NPTH
FMAT,2
METRIC
; #@! TA.AperFunction,NonPlated,NPTH,ComponentDrill
T1C1.500
; #@! TA.AperFunction,NonPlated,NPTH,ComponentDrill
T2C1.900
; #@! TA.AperFunction,NonPlated,NPTH,ComponentDrill
T3C2.200
; #@! TA.AperFunction,NonPlated,NPTH,ComponentDrill
T4C3.000
; #@! TA.AperFunction,NonPlated,NPTH,ComponentDrill
T5C4.100
%
G90
G05
T1
X136.155Y-75.08
X143.155Y-75.08
X154.605Y-75.0
X161.605Y-75.0
T2
X0.6Y-47.08
X0.68Y-66.08
X0.68Y-85.08
X0.68Y-104.08
X0.68Y-123.08
X10.76Y-47.08
X10.84Y-66.08
X10.84Y-85.08
X10.84Y-104.08
X10.84Y-123.08
X19.68Y-47.08
X19.68Y-66.08
X19.68Y-85.08
X19.68Y-104.08
X19.68Y-123.16
X29.84Y-47.08
X29.84Y-66.08
X29.84Y-85.08
X29.84Y-104.08
X29.84Y-123.16
X38.68Y-45.12
X38.68Y-64.08
X38.68Y-83.16
X38.68Y-102.08
X38.68Y-122.08
X48.84Y-45.12
X48.84Y-64.08
X48.84Y-83.16
X48.84Y-102.08
X48.84Y-122.08
X57.68Y-43.08
X57.68Y-62.08
X57.68Y-81.08
X57.68Y-100.08
X57.68Y-122.08
X67.84Y-43.08
X67.84Y-62.08
X67.84Y-81.08
X67.84Y-100.08
X67.84Y-122.08
X76.68Y-45.08
X76.68Y-64.08
X76.68Y-83.08
X76.68Y-102.08
X77.757Y-123.198
X86.84Y-45.08
X86.84Y-64.08
X86.84Y-83.08
X86.84Y-102.08
X87.763Y-124.962
X95.68Y-47.08
X95.68Y-66.08
X95.68Y-85.08
X95.68Y-104.08
X97.361Y-127.54
X105.84Y-47.08
X105.84Y-66.08
X105.84Y-85.08
X105.84Y-104.08
X106.159Y-132.62
X191.601Y-132.54
X191.92Y-47.0
X191.92Y-66.0
X191.92Y-85.0
X191.92Y-104.0
X200.399Y-127.46
X202.08Y-47.0
X202.08Y-66.0
X202.08Y-85.0
X202.08Y-104.0
X209.997Y-124.882
X210.92Y-45.0
X210.92Y-64.0
X210.92Y-83.0
X210.92Y-102.0
X220.003Y-123.118
X221.08Y-45.0
X221.08Y-64.0
X221.08Y-83.0
X221.08Y-102.0
X229.92Y-43.0
X229.92Y-62.0
X229.92Y-81.0
X229.92Y-100.0
X229.92Y-122.0
X240.08Y-43.0
X240.08Y-62.0
X240.08Y-81.0
X240.08Y-100.0
X240.08Y-122.0
X248.92Y-45.04
X248.92Y-64.0
X248.92Y-83.08
X248.92Y-102.0
X248.92Y-122.0
X259.08Y-45.04
X259.08Y-64.0
X259.08Y-83.08
X259.08Y-102.0
X259.08Y-122.0
X267.92Y-47.0
X267.92Y-66.0
X267.92Y-85.0
X267.92Y-104.0
X267.92Y-123.08
X278.08Y-47.0
X278.08Y-66.0
X278.08Y-85.0
X278.08Y-104.0
X278.08Y-123.08
X286.92Y-66.0
X286.92Y-85.0
X286.92Y-104.0
X286.92Y-123.0
X287.0Y-47.0
X297.08Y-66.0
X297.08Y-85.0
X297.08Y-104.0
X297.08Y-123.0
X297.16Y-47.0
T3
X54.0Y-89.8
X119.0Y-84.5
X179.0Y-84.5
X244.0Y-89.8
T4
X1.87Y-44.54
X1.95Y-63.54
X1.95Y-82.54
X1.95Y-101.54
X1.95Y-120.54
X8.22Y-42.0
X8.3Y-61.0
X8.3Y-80.0
X8.3Y-99.0
X8.3Y-118.0
X20.95Y-44.54
X20.95Y-63.54
X20.95Y-82.54
X20.95Y-101.54
X20.95Y-120.62
X27.3Y-42.0
X27.3Y-61.0
X27.3Y-80.0
X27.3Y-99.0
X27.3Y-118.08
X39.95Y-42.58
X39.95Y-61.54
X39.95Y-80.62
X39.95Y-99.54
X39.95Y-119.54
X46.3Y-40.04
X46.3Y-59.0
X46.3Y-78.08
X46.3Y-97.0
X46.3Y-117.0
X58.95Y-40.54
X58.95Y-59.54
X58.95Y-78.54
X58.95Y-97.54
X58.95Y-119.54
X65.3Y-38.0
X65.3Y-57.0
X65.3Y-76.0
X65.3Y-95.0
X65.3Y-117.0
X77.95Y-42.54
X77.95Y-61.54
X77.95Y-80.54
X77.95Y-99.54
X79.449Y-120.917
X84.3Y-40.0
X84.3Y-59.0
X84.3Y-78.0
X84.3Y-97.0
X86.144Y-119.518
X96.95Y-44.54
X96.95Y-63.54
X96.95Y-82.54
X96.95Y-101.54
X99.73Y-125.975
X103.3Y-42.0
X103.3Y-61.0
X103.3Y-80.0
X103.3Y-99.0
X106.5Y-126.951
X191.43Y-129.705
X193.19Y-44.46
X193.19Y-63.46
X193.19Y-82.46
X193.19Y-101.46
X195.66Y-124.331
X199.54Y-41.92
X199.54Y-60.92
X199.54Y-79.92
X199.54Y-98.92
X210.807Y-122.16
X212.19Y-42.46
X212.19Y-61.46
X212.19Y-80.46
X212.19Y-99.46
X216.619Y-118.556
X218.54Y-39.92
X218.54Y-58.92
X218.54Y-77.92
X218.54Y-96.92
X231.19Y-40.46
X231.19Y-59.46
X231.19Y-78.46
X231.19Y-97.46
X231.19Y-119.46
X237.54Y-37.92
X237.54Y-56.92
X237.54Y-75.92
X237.54Y-94.92
X237.54Y-116.92
X250.19Y-42.5
X250.19Y-61.46
X250.19Y-80.54
X250.19Y-99.46
X250.19Y-119.46
X256.54Y-39.96
X256.54Y-58.92
X256.54Y-78.0
X256.54Y-96.92
X256.54Y-116.92
X269.19Y-44.46
X269.19Y-63.46
X269.19Y-82.46
X269.19Y-101.46
X269.19Y-120.54
X275.54Y-41.92
X275.54Y-60.92
X275.54Y-79.92
X275.54Y-98.92
X275.54Y-118.0
X288.19Y-63.46
X288.19Y-82.46
X288.19Y-101.46
X288.19Y-120.46
X288.27Y-44.46
X294.54Y-60.92
X294.54Y-79.92
X294.54Y-98.92
X294.54Y-117.92
X294.62Y-41.92
T5
X5.68Y-47.08
X5.76Y-66.08
X5.76Y-85.08
X5.76Y-104.08
X5.76Y-123.08
X24.76Y-47.08
X24.76Y-66.08
X24.76Y-85.08
X24.76Y-104.08
X24.76Y-123.16
X43.76Y-45.12
X43.76Y-64.08
X43.76Y-83.16
X43.76Y-102.08
X43.76Y-122.08
X62.76Y-43.08
X62.76Y-62.08
X62.76Y-81.08
X62.76Y-100.08
X62.76Y-122.08
X81.76Y-45.08
X81.76Y-64.08
X81.76Y-83.08
X81.76Y-102.08
X82.76Y-124.08
X100.76Y-47.08
X100.76Y-66.08
X100.76Y-85.08
X100.76Y-104.08
X101.76Y-130.08
X196.0Y-130.0
X197.0Y-47.0
X197.0Y-66.0
X197.0Y-85.0
X197.0Y-104.0
X215.0Y-124.0
X216.0Y-45.0
X216.0Y-64.0
X216.0Y-83.0
X216.0Y-102.0
X235.0Y-43.0
X235.0Y-62.0
X235.0Y-81.0
X235.0Y-100.0
X235.0Y-122.0
X254.0Y-45.04
X254.0Y-64.0
X254.0Y-83.08
X254.0Y-102.0
X254.0Y-122.0
X273.0Y-47.0
X273.0Y-66.0
X273.0Y-85.0
X273.0Y-104.0
X273.0Y-123.08
X292.0Y-66.0
X292.0Y-85.0
X292.0Y-104.0
X292.0Y-123.0
X292.08Y-47.0
M30
