G04 #@! TF.GenerationSoftware,KiCad,Pcbnew,10.0.6*
G04 #@! TF.CreationDate,2026-09-14T13:22:53+02:00*
G04 #@! TF.ProjectId,silakka60mod,73696c61-6b6b-4613-9630-6d6f642e6b69,rev?*
G04 #@! TF.SameCoordinates,Original*
G04 #@! TF.FileFunction,Soldermask,Top*
G04 #@! TF.FilePolarity,Negative*
%FSLAX46Y46*%
G04 Gerber Fmt 4.6, Leading zero omitted, Abs format (unit mm)*
G04 Created by KiCad (PCBNEW 10.0.6) date 2026-09-14 13:22:53*
%MOMM*%
%LPD*%
G01*
G04 APERTURE LIST*
G04 Aperture macros list*
%AMHorizOval*
0 Thick line with rounded ends*
0 $1 width*
0 $2 $3 position (X,Y) of the first rounded end (center of the circle)*
0 $4 $5 position (X,Y) of the second rounded end (center of the circle)*
0 Add line between two ends*
20,1,$1,$2,$3,$4,$5,0*
0 Add two circle primitives to create the rounded ends*
1,1,$1,$2,$3*
1,1,$1,$4,$5*%
%AMRotRect*
0 Rectangle, with rotation*
0 The origin of the aperture is its center*
0 $1 length*
0 $2 width*
0 $3 Rotation angle, in degrees counterclockwise*
0 Add horizontal line*
21,1,$1,$2,0,0,$3*%
G04 Aperture macros list end*
%ADD10C,1.500000*%
%ADD11R,1.200000X2.500000*%
%ADD12O,2.500000X1.500000*%
%ADD13O,1.500000X2.500000*%
%ADD14R,1.600000X1.600000*%
%ADD15O,1.600000X1.600000*%
%ADD16C,2.200000*%
%ADD17RotRect,1.600000X1.600000X170.000000*%
%ADD18HorizOval,1.600000X0.000000X0.000000X0.000000X0.000000X0*%
%ADD19RotRect,1.600000X1.600000X245.000000*%
%ADD20HorizOval,1.600000X0.000000X0.000000X0.000000X0.000000X0*%
%ADD21C,1.900000*%
%ADD22C,3.000000*%
%ADD23C,4.100000*%
%ADD24RotRect,1.600000X1.600000X30.000000*%
%ADD25HorizOval,1.600000X0.000000X0.000000X0.000000X0.000000X0*%
%ADD26RotRect,1.600000X1.600000X10.000000*%
%ADD27HorizOval,1.600000X0.000000X0.000000X0.000000X0.000000X0*%
G04 #@! TA.AperFunction,Profile*
%ADD28C,0.050000*%
G04 #@! TD*
G04 APERTURE END LIST*
D10*
X143155000Y-75080000D03*
X136155000Y-75080000D03*
D11*
X138555000Y-78330000D03*
X141555000Y-78330000D03*
X133455000Y-71830000D03*
X134555000Y-78330000D03*
D12*
X138880000Y-33080000D03*
X138880000Y-35620000D03*
X138880000Y-38160000D03*
X138880000Y-40700000D03*
X138880000Y-43240000D03*
X138880000Y-45780000D03*
X138880000Y-48320000D03*
X138880000Y-50860000D03*
X138880000Y-53400000D03*
D13*
X135840000Y-53900000D03*
X133300000Y-53900000D03*
X130760000Y-53900000D03*
X128220000Y-53900000D03*
X125680000Y-53900000D03*
D12*
X122640000Y-53400000D03*
X122640000Y-50860000D03*
X122640000Y-48320000D03*
X122640000Y-45780000D03*
X122640000Y-43240000D03*
X122640000Y-40700000D03*
X122640000Y-38160000D03*
X122640000Y-35620000D03*
X122640000Y-33080000D03*
D14*
X28570000Y-76080000D03*
D15*
X20950000Y-76080000D03*
D14*
X9800000Y-57080000D03*
D15*
X2180000Y-57080000D03*
D14*
X9760000Y-113080000D03*
D15*
X2140000Y-113080000D03*
D14*
X47570000Y-74080000D03*
D15*
X39950000Y-74080000D03*
D14*
X66570000Y-110080000D03*
D15*
X58950000Y-110080000D03*
D14*
X47570000Y-132080000D03*
D15*
X39950000Y-132080000D03*
D14*
X104570000Y-95080000D03*
D15*
X96950000Y-95080000D03*
D14*
X85570000Y-93080000D03*
D15*
X77950000Y-93080000D03*
D10*
X154604999Y-74999998D03*
X161604999Y-75000002D03*
D11*
X159205002Y-71749996D03*
X156204999Y-71750001D03*
X164304998Y-78250004D03*
X163204995Y-71750001D03*
D14*
X28570000Y-133080000D03*
D15*
X20950000Y-133080000D03*
D12*
X174880000Y-33000000D03*
X174880000Y-35540000D03*
X174880000Y-38080000D03*
X174880000Y-40620000D03*
X174880000Y-43160000D03*
X174880000Y-45700000D03*
X174880000Y-48240000D03*
X174880000Y-50780000D03*
X174880000Y-53320000D03*
D13*
X171840000Y-53820000D03*
X169300000Y-53820000D03*
X166760000Y-53820000D03*
X164220000Y-53820000D03*
X161680000Y-53820000D03*
D12*
X158640000Y-53320000D03*
X158640000Y-50780000D03*
X158640000Y-48240000D03*
X158640000Y-45700000D03*
X158640000Y-43160000D03*
X158640000Y-40620000D03*
X158640000Y-38080000D03*
X158640000Y-35540000D03*
X158640000Y-33000000D03*
D14*
X104570000Y-76080000D03*
D15*
X96950000Y-76080000D03*
D14*
X47570000Y-55080000D03*
D15*
X39950000Y-55080000D03*
D14*
X85570000Y-112080000D03*
D15*
X77950000Y-112080000D03*
D14*
X66570000Y-53080000D03*
D15*
X58950000Y-53080000D03*
D14*
X47570000Y-112080000D03*
D15*
X39950000Y-112080000D03*
D14*
X66570000Y-72080000D03*
D15*
X58950000Y-72080000D03*
D16*
X54000000Y-89800000D03*
X244000000Y-89800000D03*
D14*
X27570000Y-113080000D03*
D15*
X19950000Y-113080000D03*
D14*
X10450000Y-95080000D03*
D15*
X2830000Y-95080000D03*
D14*
X104570000Y-114080000D03*
D15*
X96950000Y-114080000D03*
D16*
X179000000Y-84500000D03*
D14*
X66570000Y-132080000D03*
D15*
X58950000Y-132080000D03*
D14*
X47570000Y-93080000D03*
D15*
X39950000Y-93080000D03*
D14*
X9570000Y-133080000D03*
D15*
X1950000Y-133080000D03*
D14*
X9570000Y-76080000D03*
D15*
X1950000Y-76080000D03*
D14*
X85570000Y-55080000D03*
D15*
X77950000Y-55080000D03*
D14*
X85570000Y-74080000D03*
D15*
X77950000Y-74080000D03*
D14*
X104570000Y-57080000D03*
D15*
X96950000Y-57080000D03*
D17*
X84512118Y-134741600D03*
D18*
X77007879Y-133418397D03*
D16*
X119000000Y-84500000D03*
D19*
X112370176Y-130626967D03*
D20*
X109149824Y-137533032D03*
D14*
X27570000Y-57080000D03*
D15*
X19950000Y-57080000D03*
D14*
X28570000Y-95080000D03*
D15*
X20950000Y-95080000D03*
D14*
X66570000Y-91080000D03*
D15*
X58950000Y-91080000D03*
D21*
X297080000Y-85000000D03*
D22*
X294540000Y-79920000D03*
D23*
X292000000Y-85000000D03*
D22*
X288190000Y-82460000D03*
D21*
X286920000Y-85000000D03*
X67840000Y-100080000D03*
D22*
X65300000Y-95000000D03*
D23*
X62760000Y-100080000D03*
D22*
X58950000Y-97540000D03*
D21*
X57680000Y-100080000D03*
X29840000Y-85080000D03*
D22*
X27300000Y-80000000D03*
D23*
X24760000Y-85080000D03*
D22*
X20950000Y-82540000D03*
D21*
X19680000Y-85080000D03*
X86840000Y-102080000D03*
D22*
X84300000Y-97000000D03*
D23*
X81760000Y-102080000D03*
D22*
X77950000Y-99540000D03*
D21*
X76680000Y-102080000D03*
X240080000Y-100000000D03*
D22*
X237540000Y-94920000D03*
D23*
X235000000Y-100000000D03*
D22*
X231190000Y-97460000D03*
D21*
X229920000Y-100000000D03*
X297080000Y-123000000D03*
D22*
X294540000Y-117920000D03*
D23*
X292000000Y-123000000D03*
D22*
X288190000Y-120460000D03*
D21*
X286920000Y-123000000D03*
X221080000Y-83000000D03*
D22*
X218540000Y-77920000D03*
D23*
X216000000Y-83000000D03*
D22*
X212190000Y-80460000D03*
D21*
X210920000Y-83000000D03*
D14*
X231190000Y-72000000D03*
D15*
X238810000Y-72000000D03*
D21*
X10840000Y-66080000D03*
D22*
X8300000Y-61000000D03*
D23*
X5760000Y-66080000D03*
D22*
X1950000Y-63540000D03*
D21*
X680000Y-66080000D03*
D14*
X193190000Y-57000000D03*
D15*
X200810000Y-57000000D03*
D21*
X278080000Y-66000000D03*
D22*
X275540000Y-60920000D03*
D23*
X273000000Y-66000000D03*
D22*
X269190000Y-63460000D03*
D21*
X267920000Y-66000000D03*
X259080000Y-64000000D03*
D22*
X256540000Y-58920000D03*
D23*
X254000000Y-64000000D03*
D22*
X250190000Y-61460000D03*
D21*
X248920000Y-64000000D03*
X221080000Y-64000000D03*
D22*
X218540000Y-58920000D03*
D23*
X216000000Y-64000000D03*
D22*
X212190000Y-61460000D03*
D21*
X210920000Y-64000000D03*
D14*
X269190000Y-95000000D03*
D15*
X276810000Y-95000000D03*
D14*
X250190000Y-93000000D03*
D15*
X257810000Y-93000000D03*
D14*
X193190000Y-76000000D03*
D15*
X200810000Y-76000000D03*
D14*
X193190000Y-95000000D03*
D15*
X200810000Y-95000000D03*
D21*
X200399409Y-127460000D03*
D22*
X195659688Y-124330585D03*
D23*
X196000000Y-130000000D03*
D22*
X191430448Y-129705295D03*
D21*
X191600591Y-132540000D03*
X202080000Y-47000000D03*
D22*
X199540000Y-41920000D03*
D23*
X197000000Y-47000000D03*
D22*
X193190000Y-44460000D03*
D21*
X191920000Y-47000000D03*
D14*
X270190000Y-113000000D03*
D15*
X277810000Y-113000000D03*
D21*
X221080000Y-102000000D03*
D22*
X218540000Y-96920000D03*
D23*
X216000000Y-102000000D03*
D22*
X212190000Y-99460000D03*
D21*
X210920000Y-102000000D03*
X29840000Y-47080000D03*
D22*
X27300000Y-42000000D03*
D23*
X24760000Y-47080000D03*
D22*
X20950000Y-44540000D03*
D21*
X19680000Y-47080000D03*
X10840000Y-123080000D03*
D22*
X8300000Y-118000000D03*
D23*
X5760000Y-123080000D03*
D22*
X1950000Y-120540000D03*
D21*
X680000Y-123080000D03*
X48840000Y-45120000D03*
D22*
X46300000Y-40040000D03*
D23*
X43760000Y-45120000D03*
D22*
X39950000Y-42580000D03*
D21*
X38680000Y-45120000D03*
D14*
X231190000Y-53000000D03*
D15*
X238810000Y-53000000D03*
D21*
X29840000Y-123160000D03*
D22*
X27300000Y-118080000D03*
D23*
X24760000Y-123160000D03*
D22*
X20950000Y-120620000D03*
D21*
X19680000Y-123160000D03*
D14*
X288000000Y-113000000D03*
D15*
X295620000Y-113000000D03*
D21*
X297080000Y-104000000D03*
D22*
X294540000Y-98920000D03*
D23*
X292000000Y-104000000D03*
D22*
X288190000Y-101460000D03*
D21*
X286920000Y-104000000D03*
X259080000Y-102000000D03*
D22*
X256540000Y-96920000D03*
D23*
X254000000Y-102000000D03*
D22*
X250190000Y-99460000D03*
D21*
X248920000Y-102000000D03*
X67840000Y-62080000D03*
D22*
X65300000Y-57000000D03*
D23*
X62760000Y-62080000D03*
D22*
X58950000Y-59540000D03*
D21*
X57680000Y-62080000D03*
X202080000Y-66000000D03*
D22*
X199540000Y-60920000D03*
D23*
X197000000Y-66000000D03*
D22*
X193190000Y-63460000D03*
D21*
X191920000Y-66000000D03*
X240080000Y-122000000D03*
D22*
X237540000Y-116920000D03*
D23*
X235000000Y-122000000D03*
D22*
X231190000Y-119460000D03*
D21*
X229920000Y-122000000D03*
X10840000Y-85080000D03*
D22*
X8300000Y-80000000D03*
D23*
X5760000Y-85080000D03*
D22*
X1950000Y-82540000D03*
D21*
X680000Y-85080000D03*
D24*
X197700444Y-139905001D03*
D25*
X204299558Y-136095001D03*
D14*
X193190000Y-114000000D03*
D15*
X200810000Y-114000000D03*
D14*
X231190000Y-91000000D03*
D15*
X238810000Y-91000000D03*
D21*
X297080000Y-66000000D03*
D22*
X294540000Y-60920000D03*
D23*
X292000000Y-66000000D03*
D22*
X288190000Y-63460000D03*
D21*
X286920000Y-66000000D03*
X106159409Y-132620000D03*
D22*
X106499700Y-126950577D03*
D23*
X101760000Y-130080000D03*
D22*
X99730446Y-125975298D03*
D21*
X97360591Y-127540000D03*
D14*
X288190000Y-133000000D03*
D15*
X295810000Y-133000000D03*
D14*
X287310000Y-95000000D03*
D15*
X294930000Y-95000000D03*
D21*
X86840000Y-83080000D03*
D22*
X84300000Y-78000000D03*
D23*
X81760000Y-83080000D03*
D22*
X77950000Y-80540000D03*
D21*
X76680000Y-83080000D03*
X48840000Y-122080000D03*
D22*
X46300000Y-117000000D03*
D23*
X43760000Y-122080000D03*
D22*
X39950000Y-119540000D03*
D21*
X38680000Y-122080000D03*
D14*
X269190000Y-133000000D03*
D15*
X276810000Y-133000000D03*
D21*
X86840000Y-45080000D03*
D22*
X84300000Y-40000000D03*
D23*
X81760000Y-45080000D03*
D22*
X77950000Y-42540000D03*
D21*
X76680000Y-45080000D03*
X48840000Y-83160000D03*
D22*
X46300000Y-78080000D03*
D23*
X43760000Y-83160000D03*
D22*
X39950000Y-80620000D03*
D21*
X38680000Y-83160000D03*
X240080000Y-62000000D03*
D22*
X237540000Y-56920000D03*
D23*
X235000000Y-62000000D03*
D22*
X231190000Y-59460000D03*
D21*
X229920000Y-62000000D03*
D14*
X212190000Y-93000000D03*
D15*
X219810000Y-93000000D03*
D14*
X269190000Y-76000000D03*
D15*
X276810000Y-76000000D03*
D21*
X202080000Y-104000000D03*
D22*
X199540000Y-98920000D03*
D23*
X197000000Y-104000000D03*
D22*
X193190000Y-101460000D03*
D21*
X191920000Y-104000000D03*
D14*
X250190000Y-55000000D03*
D15*
X257810000Y-55000000D03*
D21*
X240080000Y-43000000D03*
D22*
X237540000Y-37920000D03*
D23*
X235000000Y-43000000D03*
D22*
X231190000Y-40460000D03*
D21*
X229920000Y-43000000D03*
X105840000Y-47080000D03*
D22*
X103300000Y-42000000D03*
D23*
X100760000Y-47080000D03*
D22*
X96950000Y-44540000D03*
D21*
X95680000Y-47080000D03*
X105840000Y-85080000D03*
D22*
X103300000Y-80000000D03*
D23*
X100760000Y-85080000D03*
D22*
X96950000Y-82540000D03*
D21*
X95680000Y-85080000D03*
X48840000Y-64080000D03*
D22*
X46300000Y-59000000D03*
D23*
X43760000Y-64080000D03*
D22*
X39950000Y-61540000D03*
D21*
X38680000Y-64080000D03*
X86840000Y-64080000D03*
D22*
X84300000Y-59000000D03*
D23*
X81760000Y-64080000D03*
D22*
X77950000Y-61540000D03*
D21*
X76680000Y-64080000D03*
X29840000Y-104080000D03*
D22*
X27300000Y-99000000D03*
D23*
X24760000Y-104080000D03*
D22*
X20950000Y-101540000D03*
D21*
X19680000Y-104080000D03*
D14*
X212190000Y-112000000D03*
D15*
X219810000Y-112000000D03*
D26*
X213247882Y-134661600D03*
D27*
X220752121Y-133338397D03*
D14*
X212190000Y-74000000D03*
D15*
X219810000Y-74000000D03*
D21*
X220002823Y-123117868D03*
D22*
X216619283Y-118556108D03*
D23*
X215000000Y-124000000D03*
D22*
X210806818Y-122160187D03*
D21*
X209997177Y-124882132D03*
X67840000Y-122080000D03*
D22*
X65300000Y-117000000D03*
D23*
X62760000Y-122080000D03*
D22*
X58950000Y-119540000D03*
D21*
X57680000Y-122080000D03*
D14*
X287960000Y-57000000D03*
D15*
X295580000Y-57000000D03*
D21*
X297160000Y-47000000D03*
D22*
X294620000Y-41920000D03*
D23*
X292080000Y-47000000D03*
D22*
X288270000Y-44460000D03*
D21*
X287000000Y-47000000D03*
X10840000Y-104080000D03*
D22*
X8300000Y-99000000D03*
D23*
X5760000Y-104080000D03*
D22*
X1950000Y-101540000D03*
D21*
X680000Y-104080000D03*
D14*
X250190000Y-112000000D03*
D15*
X257810000Y-112000000D03*
D14*
X270190000Y-57000000D03*
D15*
X277810000Y-57000000D03*
D21*
X278080000Y-47000000D03*
D22*
X275540000Y-41920000D03*
D23*
X273000000Y-47000000D03*
D22*
X269190000Y-44460000D03*
D21*
X267920000Y-47000000D03*
X278080000Y-85000000D03*
D22*
X275540000Y-79920000D03*
D23*
X273000000Y-85000000D03*
D22*
X269190000Y-82460000D03*
D21*
X267920000Y-85000000D03*
X202080000Y-85000000D03*
D22*
X199540000Y-79920000D03*
D23*
X197000000Y-85000000D03*
D22*
X193190000Y-82460000D03*
D21*
X191920000Y-85000000D03*
X278080000Y-123080000D03*
D22*
X275540000Y-118000000D03*
D23*
X273000000Y-123080000D03*
D22*
X269190000Y-120540000D03*
D21*
X267920000Y-123080000D03*
X105840000Y-66080000D03*
D22*
X103300000Y-61000000D03*
D23*
X100760000Y-66080000D03*
D22*
X96950000Y-63540000D03*
D21*
X95680000Y-66080000D03*
D14*
X231190000Y-132000000D03*
D15*
X238810000Y-132000000D03*
D21*
X240080000Y-81000000D03*
D22*
X237540000Y-75920000D03*
D23*
X235000000Y-81000000D03*
D22*
X231190000Y-78460000D03*
D21*
X229920000Y-81000000D03*
X87762823Y-124962134D03*
D22*
X86143550Y-119518242D03*
D23*
X82760000Y-124080000D03*
D22*
X79448951Y-120916988D03*
D21*
X77757177Y-123197866D03*
X29840000Y-66080000D03*
D22*
X27300000Y-61000000D03*
D23*
X24760000Y-66080000D03*
D22*
X20950000Y-63540000D03*
D21*
X19680000Y-66080000D03*
X10760000Y-47080000D03*
D22*
X8220000Y-42000000D03*
D23*
X5680000Y-47080000D03*
D22*
X1870000Y-44540000D03*
D21*
X600000Y-47080000D03*
D14*
X250190000Y-132000000D03*
D15*
X257810000Y-132000000D03*
D14*
X212190000Y-55000000D03*
D15*
X219810000Y-55000000D03*
D21*
X259080000Y-122000000D03*
D22*
X256540000Y-116920000D03*
D23*
X254000000Y-122000000D03*
D22*
X250190000Y-119460000D03*
D21*
X248920000Y-122000000D03*
X67840000Y-81080000D03*
D22*
X65300000Y-76000000D03*
D23*
X62760000Y-81080000D03*
D22*
X58950000Y-78540000D03*
D21*
X57680000Y-81080000D03*
D14*
X231190000Y-110000000D03*
D15*
X238810000Y-110000000D03*
D14*
X250190000Y-74000000D03*
D15*
X257810000Y-74000000D03*
D14*
X288190000Y-76000000D03*
D15*
X295810000Y-76000000D03*
D21*
X67840000Y-43080000D03*
D22*
X65300000Y-38000000D03*
D23*
X62760000Y-43080000D03*
D22*
X58950000Y-40540000D03*
D21*
X57680000Y-43080000D03*
X259080000Y-45040000D03*
D22*
X256540000Y-39960000D03*
D23*
X254000000Y-45040000D03*
D22*
X250190000Y-42500000D03*
D21*
X248920000Y-45040000D03*
X259080000Y-83080000D03*
D22*
X256540000Y-78000000D03*
D23*
X254000000Y-83080000D03*
D22*
X250190000Y-80540000D03*
D21*
X248920000Y-83080000D03*
X48840000Y-102080000D03*
D22*
X46300000Y-97000000D03*
D23*
X43760000Y-102080000D03*
D22*
X39950000Y-99540000D03*
D21*
X38680000Y-102080000D03*
X221080000Y-45000000D03*
D22*
X218540000Y-39920000D03*
D23*
X216000000Y-45000000D03*
D22*
X212190000Y-42460000D03*
D21*
X210920000Y-45000000D03*
X278080000Y-104000000D03*
D22*
X275540000Y-98920000D03*
D23*
X273000000Y-104000000D03*
D22*
X269190000Y-101460000D03*
D21*
X267920000Y-104000000D03*
X105840000Y-104080000D03*
D22*
X103300000Y-99000000D03*
D23*
X100760000Y-104080000D03*
D22*
X96950000Y-101540000D03*
D21*
X95680000Y-104080000D03*
D28*
X-7620000Y-40080000D02*
X-7620000Y-138080000D01*
X-7620000Y-40080000D02*
X-3620000Y-36080000D01*
X-7620000Y-138080000D02*
X-6620000Y-139080000D01*
X-5620000Y-139080000D02*
X-6620000Y-139080000D01*
X-5620000Y-139080000D02*
X66380000Y-139080000D01*
X-3620000Y-36080000D02*
X31380000Y-36080000D01*
X31380000Y-36080000D02*
X36380000Y-31080000D01*
X66380000Y-139080000D02*
X76380000Y-139080000D01*
X76380000Y-139080000D02*
X102380000Y-145080000D01*
X88380000Y-31080000D02*
X36380000Y-31080000D01*
X88380000Y-31080000D02*
X125380000Y-31080000D01*
X102380000Y-145080000D02*
X110380000Y-145080000D01*
X110380000Y-145080000D02*
X120380000Y-124080000D01*
X120380000Y-124080000D02*
X147380000Y-91080000D01*
X125380000Y-31080000D02*
X126380000Y-32080000D01*
X126380000Y-32080000D02*
X126380000Y-50700000D01*
X126380000Y-50700000D02*
X127380000Y-51700000D01*
X127380000Y-51700000D02*
X134380000Y-51700000D01*
X134380000Y-51700000D02*
X135380000Y-50700000D01*
X135380000Y-32080000D02*
X136380000Y-31080000D01*
X135380000Y-50700000D02*
X135380000Y-32080000D01*
X147380000Y-31080000D02*
X136380000Y-31080000D01*
X147380000Y-31080000D02*
X147380000Y-51080000D01*
X147380000Y-91080000D02*
X147380000Y-51080000D01*
X150380000Y-31000000D02*
X150380000Y-51000000D01*
X150380000Y-31000000D02*
X161380000Y-31000000D01*
X150380000Y-91000000D02*
X150380000Y-51000000D01*
X161380000Y-31000000D02*
X162380000Y-32000000D01*
X162380000Y-32000000D02*
X162400000Y-51000000D01*
X162400000Y-51000000D02*
X163400000Y-52000000D01*
X163400000Y-52000000D02*
X170400000Y-52000000D01*
X170400000Y-52000000D02*
X171400000Y-51000000D01*
X171380000Y-32000000D02*
X172380000Y-31000000D01*
X171400000Y-51000000D02*
X171380000Y-32000000D01*
X177380000Y-124000000D02*
X150380000Y-91000000D01*
X187380000Y-145000000D02*
X177380000Y-124000000D01*
X195380000Y-145000000D02*
X187380000Y-145000000D01*
X221380000Y-139000000D02*
X195380000Y-145000000D01*
X231380000Y-139000000D02*
X221380000Y-139000000D01*
X261380000Y-31000000D02*
X172380000Y-31000000D01*
X261380000Y-31000000D02*
X266380000Y-36000000D01*
X301380000Y-36000000D02*
X266380000Y-36000000D01*
X303380000Y-139000000D02*
X231380000Y-139000000D01*
X303380000Y-139000000D02*
X304380000Y-139000000D01*
X305380000Y-40000000D02*
X301380000Y-36000000D01*
X305380000Y-40000000D02*
X305380000Y-138000000D01*
X305380000Y-138000000D02*
X304380000Y-139000000D01*
M02*
