%TF.GenerationSoftware,KiCad,Pcbnew,10.0.6*%
%TF.CreationDate,2026-09-14T13:22:56+02:00*%
%TF.ProjectId,silakka60mod,73696c61-6b6b-4613-9630-6d6f642e6b69,rev?*%
%TF.SameCoordinates,Original*%
%TF.FileFunction,Drillmap*%
%TF.FilePolarity,Positive*%
%FSLAX45Y45*%
G04 Gerber Fmt 4.5, Leading zero omitted, Abs format (unit mm)*
G04 Created by KiCad (PCBNEW 10.0.6) date 2026-09-14 13:22:56*
%MOMM*%
%LPD*%
G01*
G04 APERTURE LIST*
%ADD10C,0.050000*%
%ADD11C,0.200000*%
%ADD12C,0.100000*%
G04 APERTURE END LIST*
D10*
X-762000Y-4008000D02*
X-762000Y-13808000D01*
X-762000Y-4008000D02*
X-362000Y-3608000D01*
X-762000Y-13808000D02*
X-662000Y-13908000D01*
X-562000Y-13908000D02*
X-662000Y-13908000D01*
X-562000Y-13908000D02*
X6638000Y-13908000D01*
X-362000Y-3608000D02*
X3138000Y-3608000D01*
X3138000Y-3608000D02*
X3638000Y-3108000D01*
X6638000Y-13908000D02*
X7638000Y-13908000D01*
X7638000Y-13908000D02*
X10238000Y-14508000D01*
X8838000Y-3108000D02*
X3638000Y-3108000D01*
X8838000Y-3108000D02*
X12538000Y-3108000D01*
X10238000Y-14508000D02*
X11038000Y-14508000D01*
X11038000Y-14508000D02*
X12038000Y-12408000D01*
X12038000Y-12408000D02*
X14738000Y-9108000D01*
X12538000Y-3108000D02*
X12638000Y-3208000D01*
X12638000Y-3208000D02*
X12638000Y-5070000D01*
X12638000Y-5070000D02*
X12738000Y-5170000D01*
X12738000Y-5170000D02*
X13438000Y-5170000D01*
X13438000Y-5170000D02*
X13538000Y-5070000D01*
X13538000Y-3208000D02*
X13638000Y-3108000D01*
X13538000Y-5070000D02*
X13538000Y-3208000D01*
X14738000Y-3108000D02*
X13638000Y-3108000D01*
X14738000Y-3108000D02*
X14738000Y-5108000D01*
X14738000Y-9108000D02*
X14738000Y-5108000D01*
X15038000Y-3100000D02*
X15038000Y-5100000D01*
X15038000Y-3100000D02*
X16138000Y-3100000D01*
X15038000Y-9100000D02*
X15038000Y-5100000D01*
X16138000Y-3100000D02*
X16238000Y-3200000D01*
X16238000Y-3200000D02*
X16240000Y-5100000D01*
X16240000Y-5100000D02*
X16340000Y-5200000D01*
X16340000Y-5200000D02*
X17040000Y-5200000D01*
X17040000Y-5200000D02*
X17140000Y-5100000D01*
X17138000Y-3200000D02*
X17238000Y-3100000D01*
X17140000Y-5100000D02*
X17138000Y-3200000D01*
X17738000Y-12400000D02*
X15038000Y-9100000D01*
X18738000Y-14500000D02*
X17738000Y-12400000D01*
X19538000Y-14500000D02*
X18738000Y-14500000D01*
X22138000Y-13900000D02*
X19538000Y-14500000D01*
X23138000Y-13900000D02*
X22138000Y-13900000D01*
X26138000Y-3100000D02*
X17238000Y-3100000D01*
X26138000Y-3100000D02*
X26638000Y-3600000D01*
X30138000Y-3600000D02*
X26638000Y-3600000D01*
X30338000Y-13900000D02*
X23138000Y-13900000D01*
X30338000Y-13900000D02*
X30438000Y-13900000D01*
X30538000Y-4000000D02*
X30138000Y-3600000D01*
X30538000Y-4000000D02*
X30538000Y-13800000D01*
X30538000Y-13800000D02*
X30438000Y-13900000D01*
D11*
D12*
X11040000Y-5950000D02*
X11060000Y-5970000D01*
X11060000Y-5950000D02*
X11040000Y-5970000D01*
X11170000Y-4870000D02*
X11190000Y-4890000D01*
X11190000Y-4870000D02*
X11170000Y-4890000D01*
X11330000Y-5950000D02*
X11350000Y-5970000D01*
X11350000Y-5950000D02*
X11330000Y-5970000D01*
X11570000Y-4600000D02*
X11590000Y-4620000D01*
X11590000Y-4600000D02*
X11570000Y-4620000D01*
X11570000Y-4600000D02*
X11590000Y-4620000D01*
X11590000Y-4600000D02*
X11570000Y-4620000D01*
X11650000Y-4440000D02*
X11670000Y-4460000D01*
X11670000Y-4440000D02*
X11650000Y-4460000D01*
X11680000Y-5690000D02*
X11700000Y-5710000D01*
X11700000Y-5690000D02*
X11680000Y-5710000D01*
X11700000Y-4680000D02*
X11720000Y-4700000D01*
X11720000Y-4680000D02*
X11700000Y-4700000D01*
X11810000Y-4180000D02*
X11830000Y-4200000D01*
X11830000Y-4180000D02*
X11810000Y-4200000D01*
X11890000Y-4310000D02*
X11910000Y-4330000D01*
X11910000Y-4310000D02*
X11890000Y-4330000D01*
X11928000Y-4598000D02*
X11948000Y-4618000D01*
X11948000Y-4598000D02*
X11928000Y-4618000D01*
X12030000Y-5460000D02*
X12050000Y-5480000D01*
X12050000Y-5460000D02*
X12030000Y-5480000D01*
X12140000Y-5720000D02*
X12160000Y-5740000D01*
X12160000Y-5720000D02*
X12140000Y-5740000D01*
X12290000Y-5800000D02*
X12310000Y-5820000D01*
X12310000Y-5800000D02*
X12290000Y-5820000D01*
X12560000Y-5800000D02*
X12580000Y-5820000D01*
X12580000Y-5800000D02*
X12560000Y-5820000D01*
X12940000Y-5540000D02*
X12960000Y-5560000D01*
X12960000Y-5540000D02*
X12940000Y-5560000D01*
X14000000Y-5670000D02*
X14020000Y-5690000D01*
X14020000Y-5670000D02*
X14000000Y-5690000D01*
X14000000Y-5670000D02*
X14020000Y-5690000D01*
X14020000Y-5670000D02*
X14000000Y-5690000D01*
X14110000Y-4960000D02*
X14130000Y-4980000D01*
X14130000Y-4960000D02*
X14110000Y-4980000D01*
X14300000Y-4700000D02*
X14320000Y-4720000D01*
X14320000Y-4700000D02*
X14300000Y-4720000D01*
X14300000Y-4970000D02*
X14320000Y-4990000D01*
X14320000Y-4970000D02*
X14300000Y-4990000D01*
X15500000Y-7770000D02*
X15520000Y-7790000D01*
X15520000Y-7770000D02*
X15500000Y-7790000D01*
X16310000Y-6830000D02*
X16330000Y-6850000D01*
X16330000Y-6830000D02*
X16310000Y-6850000D01*
X16440000Y-6700000D02*
X16460000Y-6720000D01*
X16460000Y-6700000D02*
X16440000Y-6720000D01*
X17100000Y-5660000D02*
X17120000Y-5680000D01*
X17120000Y-5660000D02*
X17100000Y-5680000D01*
X17450000Y-5960000D02*
X17470000Y-5980000D01*
X17470000Y-5960000D02*
X17450000Y-5980000D01*
X17560000Y-5560000D02*
X17580000Y-5580000D01*
X17580000Y-5560000D02*
X17560000Y-5580000D01*
X17710000Y-4940000D02*
X17730000Y-4960000D01*
X17730000Y-4940000D02*
X17710000Y-4960000D01*
X17780000Y-4940000D02*
X17800000Y-4960000D01*
X17800000Y-4940000D02*
X17780000Y-4960000D01*
X17850000Y-5180000D02*
X17870000Y-5200000D01*
X17870000Y-5180000D02*
X17850000Y-5200000D01*
X17860000Y-5690000D02*
X17880000Y-5710000D01*
X17880000Y-5690000D02*
X17860000Y-5710000D01*
X18210000Y-6150000D02*
X18230000Y-6170000D01*
X18230000Y-6150000D02*
X18210000Y-6170000D01*
X18400000Y-6450000D02*
X18420000Y-6470000D01*
X18420000Y-6450000D02*
X18400000Y-6470000D01*
X18530000Y-3950000D02*
X18550000Y-3970000D01*
X18550000Y-3950000D02*
X18530000Y-3970000D01*
X19550000Y-9480000D02*
X19570000Y-9500000D01*
X19570000Y-9480000D02*
X19550000Y-9500000D01*
X19580000Y-7570000D02*
X19600000Y-7590000D01*
X19600000Y-7570000D02*
X19580000Y-7590000D01*
X19800000Y-5680000D02*
X19820000Y-5700000D01*
X19820000Y-5680000D02*
X19800000Y-5700000D01*
X25270000Y-5470000D02*
X25290000Y-5490000D01*
X25290000Y-5470000D02*
X25270000Y-5490000D01*
X25270000Y-9290000D02*
X25290000Y-9310000D01*
X25290000Y-9290000D02*
X25270000Y-9310000D01*
X27140000Y-7610000D02*
X27160000Y-7630000D01*
X27160000Y-7610000D02*
X27140000Y-7630000D01*
X27140000Y-9500000D02*
X27160000Y-9520000D01*
X27160000Y-9500000D02*
X27140000Y-9520000D01*
X12053000Y-4908000D02*
G75*
G02*
X12023000Y-4908000I-15000J0D01*
G01*
X12023000Y-4908000D02*
G75*
G02*
X12053000Y-4908000I15000J0D01*
G01*
X14353000Y-3408000D02*
G75*
G02*
X14323000Y-3408000I-15000J0D01*
G01*
X14323000Y-3408000D02*
G75*
G02*
X14353000Y-3408000I15000J0D01*
G01*
X21615000Y-5480000D02*
G75*
G02*
X21585000Y-5480000I-15000J0D01*
G01*
X21585000Y-5480000D02*
G75*
G02*
X21615000Y-5480000I15000J0D01*
G01*
X-410000Y-6350000D02*
X-410000Y-6390000D01*
X-430000Y-6370000D02*
X-390000Y-6370000D01*
X-380000Y-4450000D02*
X-380000Y-4490000D01*
X-400000Y-4470000D02*
X-360000Y-4470000D01*
X-370000Y-8240000D02*
X-370000Y-8280000D01*
X-390000Y-8260000D02*
X-350000Y-8260000D01*
X1410000Y-11830000D02*
X1410000Y-11870000D01*
X1390000Y-11850000D02*
X1430000Y-11850000D01*
X1420000Y-6110000D02*
X1420000Y-6150000D01*
X1400000Y-6130000D02*
X1440000Y-6130000D01*
X1420000Y-8000000D02*
X1420000Y-8040000D01*
X1400000Y-8020000D02*
X1440000Y-8020000D01*
X1420000Y-9920000D02*
X1420000Y-9960000D01*
X1400000Y-9940000D02*
X1440000Y-9940000D01*
X1460000Y-4190000D02*
X1460000Y-4230000D01*
X1440000Y-4210000D02*
X1480000Y-4210000D01*
X1590000Y-4750000D02*
X1590000Y-4790000D01*
X1570000Y-4770000D02*
X1610000Y-4770000D01*
X1590000Y-6610000D02*
X1590000Y-6650000D01*
X1570000Y-6630000D02*
X1610000Y-6630000D01*
X1600000Y-8540000D02*
X1600000Y-8580000D01*
X1580000Y-8560000D02*
X1620000Y-8560000D01*
X1600000Y-10440000D02*
X1600000Y-10480000D01*
X1580000Y-10460000D02*
X1620000Y-10460000D01*
X3290000Y-6100000D02*
X3290000Y-6140000D01*
X3270000Y-6120000D02*
X3310000Y-6120000D01*
X3290000Y-8010000D02*
X3290000Y-8050000D01*
X3270000Y-8030000D02*
X3310000Y-8030000D01*
X3310000Y-9830000D02*
X3310000Y-9870000D01*
X3290000Y-9850000D02*
X3330000Y-9850000D01*
X3310000Y-11780000D02*
X3310000Y-11820000D01*
X3290000Y-11800000D02*
X3330000Y-11800000D01*
X3320000Y-4060000D02*
X3320000Y-4100000D01*
X3300000Y-4080000D02*
X3340000Y-4080000D01*
X3410000Y-9934000D02*
X3410000Y-9974000D01*
X3390000Y-9954000D02*
X3430000Y-9954000D01*
X3420000Y-8050000D02*
X3420000Y-8090000D01*
X3400000Y-8070000D02*
X3440000Y-8070000D01*
X3430000Y-4260000D02*
X3430000Y-4300000D01*
X3410000Y-4280000D02*
X3450000Y-4280000D01*
X3430000Y-6110000D02*
X3430000Y-6150000D01*
X3410000Y-6130000D02*
X3450000Y-6130000D01*
X5190000Y-11740000D02*
X5190000Y-11780000D01*
X5170000Y-11760000D02*
X5210000Y-11760000D01*
X5200000Y-7800000D02*
X5200000Y-7840000D01*
X5180000Y-7820000D02*
X5220000Y-7820000D01*
X5200000Y-9720000D02*
X5200000Y-9760000D01*
X5180000Y-9740000D02*
X5220000Y-9740000D01*
X5230000Y-3940000D02*
X5230000Y-3980000D01*
X5210000Y-3960000D02*
X5250000Y-3960000D01*
X5230000Y-5940000D02*
X5230000Y-5980000D01*
X5210000Y-5960000D02*
X5250000Y-5960000D01*
X5310000Y-7850000D02*
X5310000Y-7890000D01*
X5290000Y-7870000D02*
X5330000Y-7870000D01*
X5320000Y-4050000D02*
X5320000Y-4090000D01*
X5300000Y-4070000D02*
X5340000Y-4070000D01*
X5350000Y-5950000D02*
X5350000Y-5990000D01*
X5330000Y-5970000D02*
X5370000Y-5970000D01*
X5390000Y-10000000D02*
X5390000Y-10040000D01*
X5370000Y-10020000D02*
X5410000Y-10020000D01*
X7090000Y-11690000D02*
X7090000Y-11730000D01*
X7070000Y-11710000D02*
X7110000Y-11710000D01*
X7100000Y-3770000D02*
X7100000Y-3810000D01*
X7080000Y-3790000D02*
X7120000Y-3790000D01*
X7100000Y-9510000D02*
X7100000Y-9550000D01*
X7080000Y-9530000D02*
X7120000Y-9530000D01*
X7120000Y-7620000D02*
X7120000Y-7660000D01*
X7100000Y-7640000D02*
X7140000Y-7640000D01*
X7150000Y-5720000D02*
X7150000Y-5760000D01*
X7130000Y-5740000D02*
X7170000Y-5740000D01*
X7220000Y-4220000D02*
X7220000Y-4260000D01*
X7200000Y-4240000D02*
X7240000Y-4240000D01*
X7250000Y-8250000D02*
X7250000Y-8290000D01*
X7230000Y-8270000D02*
X7270000Y-8270000D01*
X7310000Y-6400000D02*
X7310000Y-6440000D01*
X7290000Y-6420000D02*
X7330000Y-6420000D01*
X7340000Y-10260000D02*
X7340000Y-10300000D01*
X7320000Y-10280000D02*
X7360000Y-10280000D01*
X8939538Y-11570000D02*
X8939538Y-11610000D01*
X8919538Y-11590000D02*
X8959538Y-11590000D01*
X8980000Y-3940000D02*
X8980000Y-3980000D01*
X8960000Y-3960000D02*
X9000000Y-3960000D01*
X8980000Y-5920000D02*
X8980000Y-5960000D01*
X8960000Y-5940000D02*
X9000000Y-5940000D01*
X8980000Y-7820000D02*
X8980000Y-7860000D01*
X8960000Y-7840000D02*
X9000000Y-7840000D01*
X8980000Y-9710000D02*
X8980000Y-9750000D01*
X8960000Y-9730000D02*
X9000000Y-9730000D01*
X9110000Y-10090000D02*
X9110000Y-10130000D01*
X9090000Y-10110000D02*
X9130000Y-10110000D01*
X9210000Y-4750000D02*
X9210000Y-4790000D01*
X9190000Y-4770000D02*
X9230000Y-4770000D01*
X9210000Y-6600000D02*
X9210000Y-6640000D01*
X9190000Y-6620000D02*
X9230000Y-6620000D01*
X9210000Y-8500000D02*
X9210000Y-8540000D01*
X9190000Y-8520000D02*
X9230000Y-8520000D01*
X10910000Y-4140000D02*
X10910000Y-4180000D01*
X10890000Y-4160000D02*
X10930000Y-4160000D01*
X10910000Y-6070000D02*
X10910000Y-6110000D01*
X10890000Y-6090000D02*
X10930000Y-6090000D01*
X10910000Y-7970000D02*
X10910000Y-8010000D01*
X10890000Y-7990000D02*
X10930000Y-7990000D01*
X10910000Y-9880000D02*
X10910000Y-9920000D01*
X10890000Y-9900000D02*
X10930000Y-9900000D01*
X10935932Y-12450000D02*
X10935932Y-12490000D01*
X10915932Y-12470000D02*
X10955932Y-12470000D01*
X11448000Y-5538000D02*
X11448000Y-5578000D01*
X11428000Y-5558000D02*
X11468000Y-5558000D01*
X11448000Y-6188000D02*
X11448000Y-6228000D01*
X11428000Y-6208000D02*
X11468000Y-6208000D01*
X11978000Y-6468000D02*
X11978000Y-6508000D01*
X11958000Y-6488000D02*
X11998000Y-6488000D01*
X14058000Y-8088000D02*
X14058000Y-8128000D01*
X14038000Y-8108000D02*
X14078000Y-8108000D01*
X14208000Y-5938000D02*
X14208000Y-5978000D01*
X14188000Y-5958000D02*
X14228000Y-5958000D01*
X14208000Y-6188000D02*
X14208000Y-6228000D01*
X14188000Y-6208000D02*
X14228000Y-6208000D01*
X20100000Y-12100000D02*
X20100000Y-12140000D01*
X20080000Y-12120000D02*
X20120000Y-12120000D01*
X20520000Y-9880000D02*
X20520000Y-9920000D01*
X20500000Y-9900000D02*
X20540000Y-9900000D01*
X20540000Y-7970000D02*
X20540000Y-8010000D01*
X20520000Y-7990000D02*
X20560000Y-7990000D01*
X20560000Y-6080000D02*
X20560000Y-6120000D01*
X20540000Y-6100000D02*
X20580000Y-6100000D01*
X20570000Y-4000000D02*
X20570000Y-4040000D01*
X20550000Y-4020000D02*
X20590000Y-4020000D01*
X22320000Y-11740000D02*
X22320000Y-11780000D01*
X22300000Y-11760000D02*
X22340000Y-11760000D01*
X22410000Y-3930000D02*
X22410000Y-3970000D01*
X22390000Y-3950000D02*
X22430000Y-3950000D01*
X22440000Y-9680000D02*
X22440000Y-9720000D01*
X22420000Y-9700000D02*
X22460000Y-9700000D01*
X22450000Y-5900000D02*
X22450000Y-5940000D01*
X22430000Y-5920000D02*
X22470000Y-5920000D01*
X22460000Y-7770000D02*
X22460000Y-7810000D01*
X22440000Y-7790000D02*
X22480000Y-7790000D01*
X24310000Y-7590000D02*
X24310000Y-7630000D01*
X24290000Y-7610000D02*
X24330000Y-7610000D01*
X24320000Y-9490000D02*
X24320000Y-9530000D01*
X24300000Y-9510000D02*
X24340000Y-9510000D01*
X24330000Y-11630000D02*
X24330000Y-11670000D01*
X24310000Y-11650000D02*
X24350000Y-11650000D01*
X24360000Y-3710000D02*
X24360000Y-3750000D01*
X24340000Y-3730000D02*
X24380000Y-3730000D01*
X24360000Y-5690000D02*
X24360000Y-5730000D01*
X24340000Y-5710000D02*
X24380000Y-5710000D01*
X26240000Y-11700000D02*
X26240000Y-11740000D01*
X26220000Y-11720000D02*
X26260000Y-11720000D01*
X26250000Y-9660000D02*
X26250000Y-9700000D01*
X26230000Y-9680000D02*
X26270000Y-9680000D01*
X26260000Y-5890000D02*
X26260000Y-5930000D01*
X26240000Y-5910000D02*
X26280000Y-5910000D01*
X26260000Y-7770000D02*
X26260000Y-7810000D01*
X26240000Y-7790000D02*
X26280000Y-7790000D01*
X26270000Y-3980000D02*
X26270000Y-4020000D01*
X26250000Y-4000000D02*
X26290000Y-4000000D01*
X28130000Y-4060000D02*
X28130000Y-4100000D01*
X28110000Y-4080000D02*
X28150000Y-4080000D01*
X28150000Y-6072000D02*
X28150000Y-6112000D01*
X28130000Y-6092000D02*
X28170000Y-6092000D01*
X28170000Y-8020000D02*
X28170000Y-8060000D01*
X28150000Y-8040000D02*
X28190000Y-8040000D01*
X28170000Y-9880000D02*
X28170000Y-9920000D01*
X28150000Y-9900000D02*
X28190000Y-9900000D01*
X28170000Y-11820000D02*
X28170000Y-11860000D01*
X28150000Y-11840000D02*
X28190000Y-11840000D01*
X30100000Y-4050000D02*
X30100000Y-4090000D01*
X30080000Y-4070000D02*
X30120000Y-4070000D01*
X223284Y-7636284D02*
X223284Y-7579715D01*
X166716Y-7579715D01*
X166716Y-7636284D01*
X223284Y-7636284D01*
X223284Y-13336284D02*
X223284Y-13279715D01*
X166716Y-13279715D01*
X166716Y-13336284D01*
X223284Y-13336284D01*
X242284Y-11336284D02*
X242284Y-11279715D01*
X185715Y-11279715D01*
X185715Y-11336284D01*
X242284Y-11336284D01*
X246284Y-5736284D02*
X246284Y-5679715D01*
X189715Y-5679715D01*
X189715Y-5736284D01*
X246284Y-5736284D01*
X311285Y-9536285D02*
X311285Y-9479716D01*
X254715Y-9479716D01*
X254715Y-9536285D01*
X311285Y-9536285D01*
X985284Y-7636284D02*
X985284Y-7579715D01*
X928715Y-7579715D01*
X928715Y-7636284D01*
X985284Y-7636284D01*
X985284Y-13336284D02*
X985284Y-13279715D01*
X928715Y-13279715D01*
X928715Y-13336284D01*
X985284Y-13336284D01*
X1004284Y-11336284D02*
X1004284Y-11279715D01*
X947715Y-11279715D01*
X947715Y-11336284D01*
X1004284Y-11336284D01*
X1008284Y-5736284D02*
X1008284Y-5679715D01*
X951715Y-5679715D01*
X951715Y-5736284D01*
X1008284Y-5736284D01*
X1073285Y-9536285D02*
X1073285Y-9479716D01*
X1016715Y-9479716D01*
X1016715Y-9536285D01*
X1073285Y-9536285D01*
X2023284Y-5736284D02*
X2023284Y-5679715D01*
X1966715Y-5679715D01*
X1966715Y-5736284D01*
X2023284Y-5736284D01*
X2023284Y-11336284D02*
X2023284Y-11279715D01*
X1966715Y-11279715D01*
X1966715Y-11336284D01*
X2023284Y-11336284D01*
X2123285Y-7636284D02*
X2123285Y-7579715D01*
X2066715Y-7579715D01*
X2066715Y-7636284D01*
X2123285Y-7636284D01*
X2123285Y-9536285D02*
X2123285Y-9479716D01*
X2066715Y-9479716D01*
X2066715Y-9536285D01*
X2123285Y-9536285D01*
X2123285Y-13336284D02*
X2123285Y-13279715D01*
X2066715Y-13279715D01*
X2066715Y-13336284D01*
X2123285Y-13336284D01*
X2785285Y-5736284D02*
X2785285Y-5679715D01*
X2728716Y-5679715D01*
X2728716Y-5736284D01*
X2785285Y-5736284D01*
X2785285Y-11336284D02*
X2785285Y-11279715D01*
X2728716Y-11279715D01*
X2728716Y-11336284D01*
X2785285Y-11336284D01*
X2885284Y-7636284D02*
X2885284Y-7579715D01*
X2828715Y-7579715D01*
X2828715Y-7636284D01*
X2885284Y-7636284D01*
X2885284Y-9536285D02*
X2885284Y-9479716D01*
X2828715Y-9479716D01*
X2828715Y-9536285D01*
X2885284Y-9536285D01*
X2885284Y-13336284D02*
X2885284Y-13279715D01*
X2828715Y-13279715D01*
X2828715Y-13336284D01*
X2885284Y-13336284D01*
X4023284Y-5536285D02*
X4023284Y-5479716D01*
X3966715Y-5479716D01*
X3966715Y-5536285D01*
X4023284Y-5536285D01*
X4023284Y-7436284D02*
X4023284Y-7379715D01*
X3966715Y-7379715D01*
X3966715Y-7436284D01*
X4023284Y-7436284D01*
X4023284Y-9336285D02*
X4023284Y-9279716D01*
X3966715Y-9279716D01*
X3966715Y-9336285D01*
X4023284Y-9336285D01*
X4023284Y-11236284D02*
X4023284Y-11179716D01*
X3966715Y-11179716D01*
X3966715Y-11236284D01*
X4023284Y-11236284D01*
X4023284Y-13236284D02*
X4023284Y-13179715D01*
X3966715Y-13179715D01*
X3966715Y-13236284D01*
X4023284Y-13236284D01*
X4785285Y-5536285D02*
X4785285Y-5479716D01*
X4728716Y-5479716D01*
X4728716Y-5536285D01*
X4785285Y-5536285D01*
X4785285Y-7436284D02*
X4785285Y-7379715D01*
X4728716Y-7379715D01*
X4728716Y-7436284D01*
X4785285Y-7436284D01*
X4785285Y-9336285D02*
X4785285Y-9279716D01*
X4728716Y-9279716D01*
X4728716Y-9336285D01*
X4785285Y-9336285D01*
X4785285Y-11236284D02*
X4785285Y-11179716D01*
X4728716Y-11179716D01*
X4728716Y-11236284D01*
X4785285Y-11236284D01*
X4785285Y-13236284D02*
X4785285Y-13179715D01*
X4728716Y-13179715D01*
X4728716Y-13236284D01*
X4785285Y-13236284D01*
X5923284Y-5336285D02*
X5923284Y-5279716D01*
X5866715Y-5279716D01*
X5866715Y-5336285D01*
X5923284Y-5336285D01*
X5923284Y-7236284D02*
X5923284Y-7179715D01*
X5866715Y-7179715D01*
X5866715Y-7236284D01*
X5923284Y-7236284D01*
X5923284Y-9136285D02*
X5923284Y-9079716D01*
X5866715Y-9079716D01*
X5866715Y-9136285D01*
X5923284Y-9136285D01*
X5923284Y-11036285D02*
X5923284Y-10979716D01*
X5866715Y-10979716D01*
X5866715Y-11036285D01*
X5923284Y-11036285D01*
X5923284Y-13236284D02*
X5923284Y-13179715D01*
X5866715Y-13179715D01*
X5866715Y-13236284D01*
X5923284Y-13236284D01*
X6685284Y-5336285D02*
X6685284Y-5279716D01*
X6628715Y-5279716D01*
X6628715Y-5336285D01*
X6685284Y-5336285D01*
X6685284Y-7236284D02*
X6685284Y-7179715D01*
X6628715Y-7179715D01*
X6628715Y-7236284D01*
X6685284Y-7236284D01*
X6685284Y-9136285D02*
X6685284Y-9079716D01*
X6628715Y-9079716D01*
X6628715Y-9136285D01*
X6685284Y-9136285D01*
X6685284Y-11036285D02*
X6685284Y-10979716D01*
X6628715Y-10979716D01*
X6628715Y-11036285D01*
X6685284Y-11036285D01*
X6685284Y-13236284D02*
X6685284Y-13179715D01*
X6628715Y-13179715D01*
X6628715Y-13236284D01*
X6685284Y-13236284D01*
X7729072Y-13370124D02*
X7729072Y-13313555D01*
X7672503Y-13313555D01*
X7672503Y-13370124D01*
X7729072Y-13370124D01*
X7823284Y-5536285D02*
X7823284Y-5479716D01*
X7766715Y-5479716D01*
X7766715Y-5536285D01*
X7823284Y-5536285D01*
X7823284Y-7436284D02*
X7823284Y-7379715D01*
X7766715Y-7379715D01*
X7766715Y-7436284D01*
X7823284Y-7436284D01*
X7823284Y-9336285D02*
X7823284Y-9279716D01*
X7766715Y-9279716D01*
X7766715Y-9336285D01*
X7823284Y-9336285D01*
X7823284Y-11236284D02*
X7823284Y-11179716D01*
X7766715Y-11179716D01*
X7766715Y-11236284D01*
X7823284Y-11236284D01*
X8479496Y-13502444D02*
X8479496Y-13445875D01*
X8422927Y-13445875D01*
X8422927Y-13502444D01*
X8479496Y-13502444D01*
X8585285Y-5536285D02*
X8585285Y-5479716D01*
X8528716Y-5479716D01*
X8528716Y-5536285D01*
X8585285Y-5536285D01*
X8585285Y-7436284D02*
X8585285Y-7379715D01*
X8528716Y-7379715D01*
X8528716Y-7436284D01*
X8585285Y-7436284D01*
X8585285Y-9336285D02*
X8585285Y-9279716D01*
X8528716Y-9279716D01*
X8528716Y-9336285D01*
X8585285Y-9336285D01*
X8585285Y-11236284D02*
X8585285Y-11179716D01*
X8528716Y-11179716D01*
X8528716Y-11236284D01*
X8585285Y-11236284D01*
X9723285Y-5736284D02*
X9723285Y-5679715D01*
X9666716Y-5679715D01*
X9666716Y-5736284D01*
X9723285Y-5736284D01*
X9723285Y-7636284D02*
X9723285Y-7579715D01*
X9666716Y-7579715D01*
X9666716Y-7636284D01*
X9723285Y-7636284D01*
X9723285Y-9536285D02*
X9723285Y-9479716D01*
X9666716Y-9479716D01*
X9666716Y-9536285D01*
X9723285Y-9536285D01*
X9723285Y-11436284D02*
X9723285Y-11379715D01*
X9666716Y-11379715D01*
X9666716Y-11436284D01*
X9723285Y-11436284D01*
X10485285Y-5736284D02*
X10485285Y-5679715D01*
X10428716Y-5679715D01*
X10428716Y-5736284D01*
X10485285Y-5736284D01*
X10485285Y-7636284D02*
X10485285Y-7579715D01*
X10428716Y-7579715D01*
X10428716Y-7636284D01*
X10485285Y-7636284D01*
X10485285Y-9536285D02*
X10485285Y-9479716D01*
X10428716Y-9479716D01*
X10428716Y-9536285D01*
X10485285Y-9536285D01*
X10485285Y-11436284D02*
X10485285Y-11379715D01*
X10428716Y-11379715D01*
X10428716Y-11436284D01*
X10485285Y-11436284D01*
X10943267Y-13781588D02*
X10943267Y-13725019D01*
X10886698Y-13725019D01*
X10886698Y-13781588D01*
X10943267Y-13781588D01*
X11265302Y-13090981D02*
X11265302Y-13034412D01*
X11208733Y-13034412D01*
X11208733Y-13090981D01*
X11265302Y-13090981D01*
X19347285Y-5728284D02*
X19347285Y-5671715D01*
X19290716Y-5671715D01*
X19290716Y-5728284D01*
X19347285Y-5728284D01*
X19347285Y-7628284D02*
X19347285Y-7571715D01*
X19290716Y-7571715D01*
X19290716Y-7628284D01*
X19347285Y-7628284D01*
X19347285Y-9528285D02*
X19347285Y-9471716D01*
X19290716Y-9471716D01*
X19290716Y-9528285D01*
X19347285Y-9528285D01*
X19347285Y-11428284D02*
X19347285Y-11371715D01*
X19290716Y-11371715D01*
X19290716Y-11428284D01*
X19347285Y-11428284D01*
X19798329Y-14018785D02*
X19798329Y-13962216D01*
X19741760Y-13962216D01*
X19741760Y-14018785D01*
X19798329Y-14018785D01*
X20109285Y-5728284D02*
X20109285Y-5671715D01*
X20052716Y-5671715D01*
X20052716Y-5728284D01*
X20109285Y-5728284D01*
X20109285Y-7628284D02*
X20109285Y-7571715D01*
X20052716Y-7571715D01*
X20052716Y-7628284D01*
X20109285Y-7628284D01*
X20109285Y-9528285D02*
X20109285Y-9471716D01*
X20052716Y-9471716D01*
X20052716Y-9528285D01*
X20109285Y-9528285D01*
X20109285Y-11428284D02*
X20109285Y-11371715D01*
X20052716Y-11371715D01*
X20052716Y-11428284D01*
X20109285Y-11428284D01*
X20458240Y-13637785D02*
X20458240Y-13581216D01*
X20401671Y-13581216D01*
X20401671Y-13637785D01*
X20458240Y-13637785D01*
X21247285Y-5528285D02*
X21247285Y-5471716D01*
X21190716Y-5471716D01*
X21190716Y-5528285D01*
X21247285Y-5528285D01*
X21247285Y-7428284D02*
X21247285Y-7371715D01*
X21190716Y-7371715D01*
X21190716Y-7428284D01*
X21247285Y-7428284D01*
X21247285Y-9328285D02*
X21247285Y-9271716D01*
X21190716Y-9271716D01*
X21190716Y-9328285D01*
X21247285Y-9328285D01*
X21247285Y-11228284D02*
X21247285Y-11171716D01*
X21190716Y-11171716D01*
X21190716Y-11228284D01*
X21247285Y-11228284D01*
X21353073Y-13494444D02*
X21353073Y-13437875D01*
X21296504Y-13437875D01*
X21296504Y-13494444D01*
X21353073Y-13494444D01*
X22009285Y-5528285D02*
X22009285Y-5471716D01*
X21952716Y-5471716D01*
X21952716Y-5528285D01*
X22009285Y-5528285D01*
X22009285Y-7428284D02*
X22009285Y-7371715D01*
X21952716Y-7371715D01*
X21952716Y-7428284D01*
X22009285Y-7428284D01*
X22009285Y-9328285D02*
X22009285Y-9271716D01*
X21952716Y-9271716D01*
X21952716Y-9328285D01*
X22009285Y-9328285D01*
X22009285Y-11228284D02*
X22009285Y-11171716D01*
X21952716Y-11171716D01*
X21952716Y-11228284D01*
X22009285Y-11228284D01*
X22103497Y-13362124D02*
X22103497Y-13305555D01*
X22046928Y-13305555D01*
X22046928Y-13362124D01*
X22103497Y-13362124D01*
X23147284Y-5328285D02*
X23147284Y-5271716D01*
X23090715Y-5271716D01*
X23090715Y-5328285D01*
X23147284Y-5328285D01*
X23147284Y-7228284D02*
X23147284Y-7171715D01*
X23090715Y-7171715D01*
X23090715Y-7228284D01*
X23147284Y-7228284D01*
X23147284Y-9128285D02*
X23147284Y-9071716D01*
X23090715Y-9071716D01*
X23090715Y-9128285D01*
X23147284Y-9128285D01*
X23147284Y-11028285D02*
X23147284Y-10971716D01*
X23090715Y-10971716D01*
X23090715Y-11028285D01*
X23147284Y-11028285D01*
X23147284Y-13228284D02*
X23147284Y-13171715D01*
X23090715Y-13171715D01*
X23090715Y-13228284D01*
X23147284Y-13228284D01*
X23909284Y-5328285D02*
X23909284Y-5271716D01*
X23852715Y-5271716D01*
X23852715Y-5328285D01*
X23909284Y-5328285D01*
X23909284Y-7228284D02*
X23909284Y-7171715D01*
X23852715Y-7171715D01*
X23852715Y-7228284D01*
X23909284Y-7228284D01*
X23909284Y-9128285D02*
X23909284Y-9071716D01*
X23852715Y-9071716D01*
X23852715Y-9128285D01*
X23909284Y-9128285D01*
X23909284Y-11028285D02*
X23909284Y-10971716D01*
X23852715Y-10971716D01*
X23852715Y-11028285D01*
X23909284Y-11028285D01*
X23909284Y-13228284D02*
X23909284Y-13171715D01*
X23852715Y-13171715D01*
X23852715Y-13228284D01*
X23909284Y-13228284D01*
X25047284Y-5528285D02*
X25047284Y-5471716D01*
X24990715Y-5471716D01*
X24990715Y-5528285D01*
X25047284Y-5528285D01*
X25047284Y-7428284D02*
X25047284Y-7371715D01*
X24990715Y-7371715D01*
X24990715Y-7428284D01*
X25047284Y-7428284D01*
X25047284Y-9328285D02*
X25047284Y-9271716D01*
X24990715Y-9271716D01*
X24990715Y-9328285D01*
X25047284Y-9328285D01*
X25047284Y-11228284D02*
X25047284Y-11171716D01*
X24990715Y-11171716D01*
X24990715Y-11228284D01*
X25047284Y-11228284D01*
X25047284Y-13228284D02*
X25047284Y-13171715D01*
X24990715Y-13171715D01*
X24990715Y-13228284D01*
X25047284Y-13228284D01*
X25809284Y-5528285D02*
X25809284Y-5471716D01*
X25752715Y-5471716D01*
X25752715Y-5528285D01*
X25809284Y-5528285D01*
X25809284Y-7428284D02*
X25809284Y-7371715D01*
X25752715Y-7371715D01*
X25752715Y-7428284D01*
X25809284Y-7428284D01*
X25809284Y-9328285D02*
X25809284Y-9271716D01*
X25752715Y-9271716D01*
X25752715Y-9328285D01*
X25809284Y-9328285D01*
X25809284Y-11228284D02*
X25809284Y-11171716D01*
X25752715Y-11171716D01*
X25752715Y-11228284D01*
X25809284Y-11228284D01*
X25809284Y-13228284D02*
X25809284Y-13171715D01*
X25752715Y-13171715D01*
X25752715Y-13228284D01*
X25809284Y-13228284D01*
X26947284Y-7628284D02*
X26947284Y-7571715D01*
X26890715Y-7571715D01*
X26890715Y-7628284D01*
X26947284Y-7628284D01*
X26947284Y-9528285D02*
X26947284Y-9471716D01*
X26890715Y-9471716D01*
X26890715Y-9528285D01*
X26947284Y-9528285D01*
X26947284Y-13328284D02*
X26947284Y-13271715D01*
X26890715Y-13271715D01*
X26890715Y-13328284D01*
X26947284Y-13328284D01*
X27047284Y-5728284D02*
X27047284Y-5671715D01*
X26990715Y-5671715D01*
X26990715Y-5728284D01*
X27047284Y-5728284D01*
X27047284Y-11328284D02*
X27047284Y-11271715D01*
X26990715Y-11271715D01*
X26990715Y-11328284D01*
X27047284Y-11328284D01*
X27709284Y-7628284D02*
X27709284Y-7571715D01*
X27652715Y-7571715D01*
X27652715Y-7628284D01*
X27709284Y-7628284D01*
X27709284Y-9528285D02*
X27709284Y-9471716D01*
X27652715Y-9471716D01*
X27652715Y-9528285D01*
X27709284Y-9528285D01*
X27709284Y-13328284D02*
X27709284Y-13271715D01*
X27652715Y-13271715D01*
X27652715Y-13328284D01*
X27709284Y-13328284D01*
X27809284Y-5728284D02*
X27809284Y-5671715D01*
X27752715Y-5671715D01*
X27752715Y-5728284D01*
X27809284Y-5728284D01*
X27809284Y-11328284D02*
X27809284Y-11271715D01*
X27752715Y-11271715D01*
X27752715Y-11328284D01*
X27809284Y-11328284D01*
X28759284Y-9528285D02*
X28759284Y-9471716D01*
X28702715Y-9471716D01*
X28702715Y-9528285D01*
X28759284Y-9528285D01*
X28824284Y-5728284D02*
X28824284Y-5671715D01*
X28767715Y-5671715D01*
X28767715Y-5728284D01*
X28824284Y-5728284D01*
X28828284Y-11328284D02*
X28828284Y-11271715D01*
X28771715Y-11271715D01*
X28771715Y-11328284D01*
X28828284Y-11328284D01*
X28847284Y-7628284D02*
X28847284Y-7571715D01*
X28790715Y-7571715D01*
X28790715Y-7628284D01*
X28847284Y-7628284D01*
X28847284Y-13328284D02*
X28847284Y-13271715D01*
X28790715Y-13271715D01*
X28790715Y-13328284D01*
X28847284Y-13328284D01*
X29521284Y-9528285D02*
X29521284Y-9471716D01*
X29464715Y-9471716D01*
X29464715Y-9528285D01*
X29521284Y-9528285D01*
X29586284Y-5728284D02*
X29586284Y-5671715D01*
X29529715Y-5671715D01*
X29529715Y-5728284D01*
X29586284Y-5728284D01*
X29590284Y-11328284D02*
X29590284Y-11271715D01*
X29533715Y-11271715D01*
X29533715Y-11328284D01*
X29590284Y-11328284D01*
X29609284Y-7628284D02*
X29609284Y-7571715D01*
X29552715Y-7571715D01*
X29552715Y-7628284D01*
X29609284Y-7628284D01*
X29609284Y-13328284D02*
X29609284Y-13271715D01*
X29552715Y-13271715D01*
X29552715Y-13328284D01*
X29609284Y-13328284D01*
X12314000Y-3358000D02*
X12364000Y-3308000D01*
X12314000Y-3258000D01*
X12264000Y-3308000D01*
X12314000Y-3358000D01*
X12314000Y-3612000D02*
X12364000Y-3562000D01*
X12314000Y-3512000D01*
X12264000Y-3562000D01*
X12314000Y-3612000D01*
X12314000Y-3866000D02*
X12364000Y-3816000D01*
X12314000Y-3766000D01*
X12264000Y-3816000D01*
X12314000Y-3866000D01*
X12314000Y-4120000D02*
X12364000Y-4070000D01*
X12314000Y-4020000D01*
X12264000Y-4070000D01*
X12314000Y-4120000D01*
X12314000Y-4374000D02*
X12364000Y-4324000D01*
X12314000Y-4274000D01*
X12264000Y-4324000D01*
X12314000Y-4374000D01*
X12314000Y-4628000D02*
X12364000Y-4578000D01*
X12314000Y-4528000D01*
X12264000Y-4578000D01*
X12314000Y-4628000D01*
X12314000Y-4882000D02*
X12364000Y-4832000D01*
X12314000Y-4782000D01*
X12264000Y-4832000D01*
X12314000Y-4882000D01*
X12314000Y-5136000D02*
X12364000Y-5086000D01*
X12314000Y-5036000D01*
X12264000Y-5086000D01*
X12314000Y-5136000D01*
X12314000Y-5390000D02*
X12364000Y-5340000D01*
X12314000Y-5290000D01*
X12264000Y-5340000D01*
X12314000Y-5390000D01*
X12568000Y-5390000D02*
X12618000Y-5340000D01*
X12568000Y-5290000D01*
X12518000Y-5340000D01*
X12568000Y-5390000D01*
X12822000Y-5390000D02*
X12872000Y-5340000D01*
X12822000Y-5290000D01*
X12772000Y-5340000D01*
X12822000Y-5390000D01*
X13076000Y-5390000D02*
X13126000Y-5340000D01*
X13076000Y-5290000D01*
X13026000Y-5340000D01*
X13076000Y-5390000D01*
X13330000Y-5390000D02*
X13380000Y-5340000D01*
X13330000Y-5290000D01*
X13280000Y-5340000D01*
X13330000Y-5390000D01*
X13584000Y-5390000D02*
X13634000Y-5340000D01*
X13584000Y-5290000D01*
X13534000Y-5340000D01*
X13584000Y-5390000D01*
X13838000Y-3358000D02*
X13888000Y-3308000D01*
X13838000Y-3258000D01*
X13788000Y-3308000D01*
X13838000Y-3358000D01*
X13838000Y-3612000D02*
X13888000Y-3562000D01*
X13838000Y-3512000D01*
X13788000Y-3562000D01*
X13838000Y-3612000D01*
X13838000Y-3866000D02*
X13888000Y-3816000D01*
X13838000Y-3766000D01*
X13788000Y-3816000D01*
X13838000Y-3866000D01*
X13838000Y-4120000D02*
X13888000Y-4070000D01*
X13838000Y-4020000D01*
X13788000Y-4070000D01*
X13838000Y-4120000D01*
X13838000Y-4374000D02*
X13888000Y-4324000D01*
X13838000Y-4274000D01*
X13788000Y-4324000D01*
X13838000Y-4374000D01*
X13838000Y-4628000D02*
X13888000Y-4578000D01*
X13838000Y-4528000D01*
X13788000Y-4578000D01*
X13838000Y-4628000D01*
X13838000Y-4882000D02*
X13888000Y-4832000D01*
X13838000Y-4782000D01*
X13788000Y-4832000D01*
X13838000Y-4882000D01*
X13838000Y-5136000D02*
X13888000Y-5086000D01*
X13838000Y-5036000D01*
X13788000Y-5086000D01*
X13838000Y-5136000D01*
X13838000Y-5390000D02*
X13888000Y-5340000D01*
X13838000Y-5290000D01*
X13788000Y-5340000D01*
X13838000Y-5390000D01*
X15914000Y-3350000D02*
X15964000Y-3300000D01*
X15914000Y-3250000D01*
X15864000Y-3300000D01*
X15914000Y-3350000D01*
X15914000Y-3604000D02*
X15964000Y-3554000D01*
X15914000Y-3504000D01*
X15864000Y-3554000D01*
X15914000Y-3604000D01*
X15914000Y-3858000D02*
X15964000Y-3808000D01*
X15914000Y-3758000D01*
X15864000Y-3808000D01*
X15914000Y-3858000D01*
X15914000Y-4112000D02*
X15964000Y-4062000D01*
X15914000Y-4012000D01*
X15864000Y-4062000D01*
X15914000Y-4112000D01*
X15914000Y-4366000D02*
X15964000Y-4316000D01*
X15914000Y-4266000D01*
X15864000Y-4316000D01*
X15914000Y-4366000D01*
X15914000Y-4620000D02*
X15964000Y-4570000D01*
X15914000Y-4520000D01*
X15864000Y-4570000D01*
X15914000Y-4620000D01*
X15914000Y-4874000D02*
X15964000Y-4824000D01*
X15914000Y-4774000D01*
X15864000Y-4824000D01*
X15914000Y-4874000D01*
X15914000Y-5128000D02*
X15964000Y-5078000D01*
X15914000Y-5028000D01*
X15864000Y-5078000D01*
X15914000Y-5128000D01*
X15914000Y-5382000D02*
X15964000Y-5332000D01*
X15914000Y-5282000D01*
X15864000Y-5332000D01*
X15914000Y-5382000D01*
X16168000Y-5382000D02*
X16218000Y-5332000D01*
X16168000Y-5282000D01*
X16118000Y-5332000D01*
X16168000Y-5382000D01*
X16422000Y-5382000D02*
X16472000Y-5332000D01*
X16422000Y-5282000D01*
X16372000Y-5332000D01*
X16422000Y-5382000D01*
X16676000Y-5382000D02*
X16726000Y-5332000D01*
X16676000Y-5282000D01*
X16626000Y-5332000D01*
X16676000Y-5382000D01*
X16930000Y-5382000D02*
X16980000Y-5332000D01*
X16930000Y-5282000D01*
X16880000Y-5332000D01*
X16930000Y-5382000D01*
X17184000Y-5382000D02*
X17234000Y-5332000D01*
X17184000Y-5282000D01*
X17134000Y-5332000D01*
X17184000Y-5382000D01*
X17438000Y-3350000D02*
X17488000Y-3300000D01*
X17438000Y-3250000D01*
X17388000Y-3300000D01*
X17438000Y-3350000D01*
X17438000Y-3604000D02*
X17488000Y-3554000D01*
X17438000Y-3504000D01*
X17388000Y-3554000D01*
X17438000Y-3604000D01*
X17438000Y-3858000D02*
X17488000Y-3808000D01*
X17438000Y-3758000D01*
X17388000Y-3808000D01*
X17438000Y-3858000D01*
X17438000Y-4112000D02*
X17488000Y-4062000D01*
X17438000Y-4012000D01*
X17388000Y-4062000D01*
X17438000Y-4112000D01*
X17438000Y-4366000D02*
X17488000Y-4316000D01*
X17438000Y-4266000D01*
X17388000Y-4316000D01*
X17438000Y-4366000D01*
X17438000Y-4620000D02*
X17488000Y-4570000D01*
X17438000Y-4520000D01*
X17388000Y-4570000D01*
X17438000Y-4620000D01*
X17438000Y-4874000D02*
X17488000Y-4824000D01*
X17438000Y-4774000D01*
X17388000Y-4824000D01*
X17438000Y-4874000D01*
X17438000Y-5128000D02*
X17488000Y-5078000D01*
X17438000Y-5028000D01*
X17388000Y-5078000D01*
X17438000Y-5128000D01*
X17438000Y-5382000D02*
X17488000Y-5332000D01*
X17438000Y-5282000D01*
X17388000Y-5332000D01*
X17438000Y-5382000D01*
D11*
X-503723Y-14821984D02*
X-503723Y-14621984D01*
X-503723Y-14621984D02*
X-456104Y-14621984D01*
X-456104Y-14621984D02*
X-427533Y-14631508D01*
X-427533Y-14631508D02*
X-408485Y-14650555D01*
X-408485Y-14650555D02*
X-398961Y-14669603D01*
X-398961Y-14669603D02*
X-389437Y-14707698D01*
X-389437Y-14707698D02*
X-389437Y-14736269D01*
X-389437Y-14736269D02*
X-398961Y-14774365D01*
X-398961Y-14774365D02*
X-408485Y-14793412D01*
X-408485Y-14793412D02*
X-427533Y-14812460D01*
X-427533Y-14812460D02*
X-456104Y-14821984D01*
X-456104Y-14821984D02*
X-503723Y-14821984D01*
X-303723Y-14821984D02*
X-303723Y-14688650D01*
X-303723Y-14726746D02*
X-294199Y-14707698D01*
X-294199Y-14707698D02*
X-284676Y-14698174D01*
X-284676Y-14698174D02*
X-265628Y-14688650D01*
X-265628Y-14688650D02*
X-246580Y-14688650D01*
X-179914Y-14821984D02*
X-179914Y-14688650D01*
X-179914Y-14621984D02*
X-189437Y-14631508D01*
X-189437Y-14631508D02*
X-179914Y-14641031D01*
X-179914Y-14641031D02*
X-170390Y-14631508D01*
X-170390Y-14631508D02*
X-179914Y-14621984D01*
X-179914Y-14621984D02*
X-179914Y-14641031D01*
X-56104Y-14821984D02*
X-75152Y-14812460D01*
X-75152Y-14812460D02*
X-84676Y-14793412D01*
X-84676Y-14793412D02*
X-84676Y-14621984D01*
X48658Y-14821984D02*
X29610Y-14812460D01*
X29610Y-14812460D02*
X20086Y-14793412D01*
X20086Y-14793412D02*
X20086Y-14621984D01*
X277229Y-14821984D02*
X277229Y-14621984D01*
X277229Y-14621984D02*
X343896Y-14764841D01*
X343896Y-14764841D02*
X410562Y-14621984D01*
X410562Y-14621984D02*
X410562Y-14821984D01*
X591515Y-14821984D02*
X591515Y-14717222D01*
X591515Y-14717222D02*
X581991Y-14698174D01*
X581991Y-14698174D02*
X562944Y-14688650D01*
X562944Y-14688650D02*
X524848Y-14688650D01*
X524848Y-14688650D02*
X505801Y-14698174D01*
X591515Y-14812460D02*
X572467Y-14821984D01*
X572467Y-14821984D02*
X524848Y-14821984D01*
X524848Y-14821984D02*
X505801Y-14812460D01*
X505801Y-14812460D02*
X496277Y-14793412D01*
X496277Y-14793412D02*
X496277Y-14774365D01*
X496277Y-14774365D02*
X505801Y-14755317D01*
X505801Y-14755317D02*
X524848Y-14745793D01*
X524848Y-14745793D02*
X572467Y-14745793D01*
X572467Y-14745793D02*
X591515Y-14736269D01*
X686753Y-14688650D02*
X686753Y-14888650D01*
X686753Y-14698174D02*
X705801Y-14688650D01*
X705801Y-14688650D02*
X743896Y-14688650D01*
X743896Y-14688650D02*
X762943Y-14698174D01*
X762943Y-14698174D02*
X772467Y-14707698D01*
X772467Y-14707698D02*
X781991Y-14726746D01*
X781991Y-14726746D02*
X781991Y-14783888D01*
X781991Y-14783888D02*
X772467Y-14802936D01*
X772467Y-14802936D02*
X762943Y-14812460D01*
X762943Y-14812460D02*
X743896Y-14821984D01*
X743896Y-14821984D02*
X705801Y-14821984D01*
X705801Y-14821984D02*
X686753Y-14812460D01*
X867705Y-14802936D02*
X877229Y-14812460D01*
X877229Y-14812460D02*
X867705Y-14821984D01*
X867705Y-14821984D02*
X858182Y-14812460D01*
X858182Y-14812460D02*
X867705Y-14802936D01*
X867705Y-14802936D02*
X867705Y-14821984D01*
X867705Y-14698174D02*
X877229Y-14707698D01*
X877229Y-14707698D02*
X867705Y-14717222D01*
X867705Y-14717222D02*
X858182Y-14707698D01*
X858182Y-14707698D02*
X867705Y-14698174D01*
X867705Y-14698174D02*
X867705Y-14717222D01*
D12*
X-784500Y-15140500D02*
X-764500Y-15160500D01*
X-764500Y-15140500D02*
X-784500Y-15160500D01*
D11*
X-465628Y-15041984D02*
X-446580Y-15041984D01*
X-446580Y-15041984D02*
X-427533Y-15051508D01*
X-427533Y-15051508D02*
X-418009Y-15061031D01*
X-418009Y-15061031D02*
X-408485Y-15080079D01*
X-408485Y-15080079D02*
X-398961Y-15118174D01*
X-398961Y-15118174D02*
X-398961Y-15165793D01*
X-398961Y-15165793D02*
X-408485Y-15203888D01*
X-408485Y-15203888D02*
X-418009Y-15222936D01*
X-418009Y-15222936D02*
X-427533Y-15232460D01*
X-427533Y-15232460D02*
X-446580Y-15241984D01*
X-446580Y-15241984D02*
X-465628Y-15241984D01*
X-465628Y-15241984D02*
X-484675Y-15232460D01*
X-484675Y-15232460D02*
X-494199Y-15222936D01*
X-494199Y-15222936D02*
X-503723Y-15203888D01*
X-503723Y-15203888D02*
X-513247Y-15165793D01*
X-513247Y-15165793D02*
X-513247Y-15118174D01*
X-513247Y-15118174D02*
X-503723Y-15080079D01*
X-503723Y-15080079D02*
X-494199Y-15061031D01*
X-494199Y-15061031D02*
X-484675Y-15051508D01*
X-484675Y-15051508D02*
X-465628Y-15041984D01*
X-313247Y-15222936D02*
X-303723Y-15232460D01*
X-303723Y-15232460D02*
X-313247Y-15241984D01*
X-313247Y-15241984D02*
X-322771Y-15232460D01*
X-322771Y-15232460D02*
X-313247Y-15222936D01*
X-313247Y-15222936D02*
X-313247Y-15241984D01*
X-227533Y-15061031D02*
X-218009Y-15051508D01*
X-218009Y-15051508D02*
X-198961Y-15041984D01*
X-198961Y-15041984D02*
X-151342Y-15041984D01*
X-151342Y-15041984D02*
X-132295Y-15051508D01*
X-132295Y-15051508D02*
X-122771Y-15061031D01*
X-122771Y-15061031D02*
X-113247Y-15080079D01*
X-113247Y-15080079D02*
X-113247Y-15099127D01*
X-113247Y-15099127D02*
X-122771Y-15127698D01*
X-122771Y-15127698D02*
X-237056Y-15241984D01*
X-237056Y-15241984D02*
X-113247Y-15241984D01*
X10563Y-15041984D02*
X29610Y-15041984D01*
X29610Y-15041984D02*
X48658Y-15051508D01*
X48658Y-15051508D02*
X58182Y-15061031D01*
X58182Y-15061031D02*
X67705Y-15080079D01*
X67705Y-15080079D02*
X77229Y-15118174D01*
X77229Y-15118174D02*
X77229Y-15165793D01*
X77229Y-15165793D02*
X67705Y-15203888D01*
X67705Y-15203888D02*
X58182Y-15222936D01*
X58182Y-15222936D02*
X48658Y-15232460D01*
X48658Y-15232460D02*
X29610Y-15241984D01*
X29610Y-15241984D02*
X10563Y-15241984D01*
X10563Y-15241984D02*
X-8485Y-15232460D01*
X-8485Y-15232460D02*
X-18009Y-15222936D01*
X-18009Y-15222936D02*
X-27533Y-15203888D01*
X-27533Y-15203888D02*
X-37056Y-15165793D01*
X-37056Y-15165793D02*
X-37056Y-15118174D01*
X-37056Y-15118174D02*
X-27533Y-15080079D01*
X-27533Y-15080079D02*
X-18009Y-15061031D01*
X-18009Y-15061031D02*
X-8485Y-15051508D01*
X-8485Y-15051508D02*
X10563Y-15041984D01*
X201039Y-15041984D02*
X220086Y-15041984D01*
X220086Y-15041984D02*
X239134Y-15051508D01*
X239134Y-15051508D02*
X248658Y-15061031D01*
X248658Y-15061031D02*
X258182Y-15080079D01*
X258182Y-15080079D02*
X267705Y-15118174D01*
X267705Y-15118174D02*
X267705Y-15165793D01*
X267705Y-15165793D02*
X258182Y-15203888D01*
X258182Y-15203888D02*
X248658Y-15222936D01*
X248658Y-15222936D02*
X239134Y-15232460D01*
X239134Y-15232460D02*
X220086Y-15241984D01*
X220086Y-15241984D02*
X201039Y-15241984D01*
X201039Y-15241984D02*
X181991Y-15232460D01*
X181991Y-15232460D02*
X172467Y-15222936D01*
X172467Y-15222936D02*
X162944Y-15203888D01*
X162944Y-15203888D02*
X153420Y-15165793D01*
X153420Y-15165793D02*
X153420Y-15118174D01*
X153420Y-15118174D02*
X162944Y-15080079D01*
X162944Y-15080079D02*
X172467Y-15061031D01*
X172467Y-15061031D02*
X181991Y-15051508D01*
X181991Y-15051508D02*
X201039Y-15041984D01*
X353420Y-15241984D02*
X353420Y-15108650D01*
X353420Y-15127698D02*
X362943Y-15118174D01*
X362943Y-15118174D02*
X381991Y-15108650D01*
X381991Y-15108650D02*
X410563Y-15108650D01*
X410563Y-15108650D02*
X429610Y-15118174D01*
X429610Y-15118174D02*
X439134Y-15137222D01*
X439134Y-15137222D02*
X439134Y-15241984D01*
X439134Y-15137222D02*
X448658Y-15118174D01*
X448658Y-15118174D02*
X467705Y-15108650D01*
X467705Y-15108650D02*
X496277Y-15108650D01*
X496277Y-15108650D02*
X515324Y-15118174D01*
X515324Y-15118174D02*
X524848Y-15137222D01*
X524848Y-15137222D02*
X524848Y-15241984D01*
X620086Y-15241984D02*
X620086Y-15108650D01*
X620086Y-15127698D02*
X629610Y-15118174D01*
X629610Y-15118174D02*
X648658Y-15108650D01*
X648658Y-15108650D02*
X677229Y-15108650D01*
X677229Y-15108650D02*
X696277Y-15118174D01*
X696277Y-15118174D02*
X705801Y-15137222D01*
X705801Y-15137222D02*
X705801Y-15241984D01*
X705801Y-15137222D02*
X715324Y-15118174D01*
X715324Y-15118174D02*
X734372Y-15108650D01*
X734372Y-15108650D02*
X762943Y-15108650D01*
X762943Y-15108650D02*
X781991Y-15118174D01*
X781991Y-15118174D02*
X791515Y-15137222D01*
X791515Y-15137222D02*
X791515Y-15241984D01*
X1181991Y-15032460D02*
X1010563Y-15289603D01*
X1439134Y-15041984D02*
X1458182Y-15041984D01*
X1458182Y-15041984D02*
X1477229Y-15051508D01*
X1477229Y-15051508D02*
X1486753Y-15061031D01*
X1486753Y-15061031D02*
X1496277Y-15080079D01*
X1496277Y-15080079D02*
X1505801Y-15118174D01*
X1505801Y-15118174D02*
X1505801Y-15165793D01*
X1505801Y-15165793D02*
X1496277Y-15203888D01*
X1496277Y-15203888D02*
X1486753Y-15222936D01*
X1486753Y-15222936D02*
X1477229Y-15232460D01*
X1477229Y-15232460D02*
X1458182Y-15241984D01*
X1458182Y-15241984D02*
X1439134Y-15241984D01*
X1439134Y-15241984D02*
X1420086Y-15232460D01*
X1420086Y-15232460D02*
X1410563Y-15222936D01*
X1410563Y-15222936D02*
X1401039Y-15203888D01*
X1401039Y-15203888D02*
X1391515Y-15165793D01*
X1391515Y-15165793D02*
X1391515Y-15118174D01*
X1391515Y-15118174D02*
X1401039Y-15080079D01*
X1401039Y-15080079D02*
X1410563Y-15061031D01*
X1410563Y-15061031D02*
X1420086Y-15051508D01*
X1420086Y-15051508D02*
X1439134Y-15041984D01*
X1591515Y-15222936D02*
X1601039Y-15232460D01*
X1601039Y-15232460D02*
X1591515Y-15241984D01*
X1591515Y-15241984D02*
X1581991Y-15232460D01*
X1581991Y-15232460D02*
X1591515Y-15222936D01*
X1591515Y-15222936D02*
X1591515Y-15241984D01*
X1724848Y-15041984D02*
X1743896Y-15041984D01*
X1743896Y-15041984D02*
X1762944Y-15051508D01*
X1762944Y-15051508D02*
X1772467Y-15061031D01*
X1772467Y-15061031D02*
X1781991Y-15080079D01*
X1781991Y-15080079D02*
X1791515Y-15118174D01*
X1791515Y-15118174D02*
X1791515Y-15165793D01*
X1791515Y-15165793D02*
X1781991Y-15203888D01*
X1781991Y-15203888D02*
X1772467Y-15222936D01*
X1772467Y-15222936D02*
X1762944Y-15232460D01*
X1762944Y-15232460D02*
X1743896Y-15241984D01*
X1743896Y-15241984D02*
X1724848Y-15241984D01*
X1724848Y-15241984D02*
X1705801Y-15232460D01*
X1705801Y-15232460D02*
X1696277Y-15222936D01*
X1696277Y-15222936D02*
X1686753Y-15203888D01*
X1686753Y-15203888D02*
X1677229Y-15165793D01*
X1677229Y-15165793D02*
X1677229Y-15118174D01*
X1677229Y-15118174D02*
X1686753Y-15080079D01*
X1686753Y-15080079D02*
X1696277Y-15061031D01*
X1696277Y-15061031D02*
X1705801Y-15051508D01*
X1705801Y-15051508D02*
X1724848Y-15041984D01*
X1915325Y-15041984D02*
X1934372Y-15041984D01*
X1934372Y-15041984D02*
X1953420Y-15051508D01*
X1953420Y-15051508D02*
X1962944Y-15061031D01*
X1962944Y-15061031D02*
X1972467Y-15080079D01*
X1972467Y-15080079D02*
X1981991Y-15118174D01*
X1981991Y-15118174D02*
X1981991Y-15165793D01*
X1981991Y-15165793D02*
X1972467Y-15203888D01*
X1972467Y-15203888D02*
X1962944Y-15222936D01*
X1962944Y-15222936D02*
X1953420Y-15232460D01*
X1953420Y-15232460D02*
X1934372Y-15241984D01*
X1934372Y-15241984D02*
X1915325Y-15241984D01*
X1915325Y-15241984D02*
X1896277Y-15232460D01*
X1896277Y-15232460D02*
X1886753Y-15222936D01*
X1886753Y-15222936D02*
X1877229Y-15203888D01*
X1877229Y-15203888D02*
X1867706Y-15165793D01*
X1867706Y-15165793D02*
X1867706Y-15118174D01*
X1867706Y-15118174D02*
X1877229Y-15080079D01*
X1877229Y-15080079D02*
X1886753Y-15061031D01*
X1886753Y-15061031D02*
X1896277Y-15051508D01*
X1896277Y-15051508D02*
X1915325Y-15041984D01*
X2048658Y-15041984D02*
X2181991Y-15041984D01*
X2181991Y-15041984D02*
X2096277Y-15241984D01*
X2267706Y-15241984D02*
X2305801Y-15241984D01*
X2305801Y-15241984D02*
X2324849Y-15232460D01*
X2324849Y-15232460D02*
X2334372Y-15222936D01*
X2334372Y-15222936D02*
X2353420Y-15194365D01*
X2353420Y-15194365D02*
X2362944Y-15156269D01*
X2362944Y-15156269D02*
X2362944Y-15080079D01*
X2362944Y-15080079D02*
X2353420Y-15061031D01*
X2353420Y-15061031D02*
X2343896Y-15051508D01*
X2343896Y-15051508D02*
X2324849Y-15041984D01*
X2324849Y-15041984D02*
X2286753Y-15041984D01*
X2286753Y-15041984D02*
X2267706Y-15051508D01*
X2267706Y-15051508D02*
X2258182Y-15061031D01*
X2258182Y-15061031D02*
X2248658Y-15080079D01*
X2248658Y-15080079D02*
X2248658Y-15127698D01*
X2248658Y-15127698D02*
X2258182Y-15146746D01*
X2258182Y-15146746D02*
X2267706Y-15156269D01*
X2267706Y-15156269D02*
X2286753Y-15165793D01*
X2286753Y-15165793D02*
X2324849Y-15165793D01*
X2324849Y-15165793D02*
X2343896Y-15156269D01*
X2343896Y-15156269D02*
X2353420Y-15146746D01*
X2353420Y-15146746D02*
X2362944Y-15127698D01*
X2439134Y-15041984D02*
X2439134Y-15080079D01*
X2515325Y-15041984D02*
X2515325Y-15080079D01*
X2810563Y-15318174D02*
X2801039Y-15308650D01*
X2801039Y-15308650D02*
X2781991Y-15280079D01*
X2781991Y-15280079D02*
X2772468Y-15261031D01*
X2772468Y-15261031D02*
X2762944Y-15232460D01*
X2762944Y-15232460D02*
X2753420Y-15184841D01*
X2753420Y-15184841D02*
X2753420Y-15146746D01*
X2753420Y-15146746D02*
X2762944Y-15099127D01*
X2762944Y-15099127D02*
X2772468Y-15070555D01*
X2772468Y-15070555D02*
X2781991Y-15051508D01*
X2781991Y-15051508D02*
X2801039Y-15022936D01*
X2801039Y-15022936D02*
X2810563Y-15013412D01*
X2972468Y-15108650D02*
X2972468Y-15241984D01*
X2924848Y-15032460D02*
X2877229Y-15175317D01*
X2877229Y-15175317D02*
X3001039Y-15175317D01*
X3181991Y-15241984D02*
X3067706Y-15241984D01*
X3124848Y-15241984D02*
X3124848Y-15041984D01*
X3124848Y-15041984D02*
X3105801Y-15070555D01*
X3105801Y-15070555D02*
X3086753Y-15089603D01*
X3086753Y-15089603D02*
X3067706Y-15099127D01*
X3420087Y-15241984D02*
X3420087Y-15041984D01*
X3505801Y-15241984D02*
X3505801Y-15137222D01*
X3505801Y-15137222D02*
X3496277Y-15118174D01*
X3496277Y-15118174D02*
X3477230Y-15108650D01*
X3477230Y-15108650D02*
X3448658Y-15108650D01*
X3448658Y-15108650D02*
X3429610Y-15118174D01*
X3429610Y-15118174D02*
X3420087Y-15127698D01*
X3629610Y-15241984D02*
X3610563Y-15232460D01*
X3610563Y-15232460D02*
X3601039Y-15222936D01*
X3601039Y-15222936D02*
X3591515Y-15203888D01*
X3591515Y-15203888D02*
X3591515Y-15146746D01*
X3591515Y-15146746D02*
X3601039Y-15127698D01*
X3601039Y-15127698D02*
X3610563Y-15118174D01*
X3610563Y-15118174D02*
X3629610Y-15108650D01*
X3629610Y-15108650D02*
X3658182Y-15108650D01*
X3658182Y-15108650D02*
X3677230Y-15118174D01*
X3677230Y-15118174D02*
X3686753Y-15127698D01*
X3686753Y-15127698D02*
X3696277Y-15146746D01*
X3696277Y-15146746D02*
X3696277Y-15203888D01*
X3696277Y-15203888D02*
X3686753Y-15222936D01*
X3686753Y-15222936D02*
X3677230Y-15232460D01*
X3677230Y-15232460D02*
X3658182Y-15241984D01*
X3658182Y-15241984D02*
X3629610Y-15241984D01*
X3810563Y-15241984D02*
X3791515Y-15232460D01*
X3791515Y-15232460D02*
X3781991Y-15213412D01*
X3781991Y-15213412D02*
X3781991Y-15041984D01*
X3962944Y-15232460D02*
X3943896Y-15241984D01*
X3943896Y-15241984D02*
X3905801Y-15241984D01*
X3905801Y-15241984D02*
X3886753Y-15232460D01*
X3886753Y-15232460D02*
X3877230Y-15213412D01*
X3877230Y-15213412D02*
X3877230Y-15137222D01*
X3877230Y-15137222D02*
X3886753Y-15118174D01*
X3886753Y-15118174D02*
X3905801Y-15108650D01*
X3905801Y-15108650D02*
X3943896Y-15108650D01*
X3943896Y-15108650D02*
X3962944Y-15118174D01*
X3962944Y-15118174D02*
X3972468Y-15137222D01*
X3972468Y-15137222D02*
X3972468Y-15156269D01*
X3972468Y-15156269D02*
X3877230Y-15175317D01*
X4048658Y-15232460D02*
X4067706Y-15241984D01*
X4067706Y-15241984D02*
X4105801Y-15241984D01*
X4105801Y-15241984D02*
X4124849Y-15232460D01*
X4124849Y-15232460D02*
X4134372Y-15213412D01*
X4134372Y-15213412D02*
X4134372Y-15203888D01*
X4134372Y-15203888D02*
X4124849Y-15184841D01*
X4124849Y-15184841D02*
X4105801Y-15175317D01*
X4105801Y-15175317D02*
X4077230Y-15175317D01*
X4077230Y-15175317D02*
X4058182Y-15165793D01*
X4058182Y-15165793D02*
X4048658Y-15146746D01*
X4048658Y-15146746D02*
X4048658Y-15137222D01*
X4048658Y-15137222D02*
X4058182Y-15118174D01*
X4058182Y-15118174D02*
X4077230Y-15108650D01*
X4077230Y-15108650D02*
X4105801Y-15108650D01*
X4105801Y-15108650D02*
X4124849Y-15118174D01*
X4201039Y-15318174D02*
X4210563Y-15308650D01*
X4210563Y-15308650D02*
X4229611Y-15280079D01*
X4229611Y-15280079D02*
X4239134Y-15261031D01*
X4239134Y-15261031D02*
X4248658Y-15232460D01*
X4248658Y-15232460D02*
X4258182Y-15184841D01*
X4258182Y-15184841D02*
X4258182Y-15146746D01*
X4258182Y-15146746D02*
X4248658Y-15099127D01*
X4248658Y-15099127D02*
X4239134Y-15070555D01*
X4239134Y-15070555D02*
X4229611Y-15051508D01*
X4229611Y-15051508D02*
X4210563Y-15022936D01*
X4210563Y-15022936D02*
X4201039Y-15013412D01*
D12*
X-764500Y-15414500D02*
G75*
G02*
X-794500Y-15414500I-15000J0D01*
G01*
X-794500Y-15414500D02*
G75*
G02*
X-764500Y-15414500I15000J0D01*
G01*
D11*
X-465628Y-15305984D02*
X-446580Y-15305984D01*
X-446580Y-15305984D02*
X-427533Y-15315508D01*
X-427533Y-15315508D02*
X-418009Y-15325031D01*
X-418009Y-15325031D02*
X-408485Y-15344079D01*
X-408485Y-15344079D02*
X-398961Y-15382174D01*
X-398961Y-15382174D02*
X-398961Y-15429793D01*
X-398961Y-15429793D02*
X-408485Y-15467888D01*
X-408485Y-15467888D02*
X-418009Y-15486936D01*
X-418009Y-15486936D02*
X-427533Y-15496460D01*
X-427533Y-15496460D02*
X-446580Y-15505984D01*
X-446580Y-15505984D02*
X-465628Y-15505984D01*
X-465628Y-15505984D02*
X-484675Y-15496460D01*
X-484675Y-15496460D02*
X-494199Y-15486936D01*
X-494199Y-15486936D02*
X-503723Y-15467888D01*
X-503723Y-15467888D02*
X-513247Y-15429793D01*
X-513247Y-15429793D02*
X-513247Y-15382174D01*
X-513247Y-15382174D02*
X-503723Y-15344079D01*
X-503723Y-15344079D02*
X-494199Y-15325031D01*
X-494199Y-15325031D02*
X-484675Y-15315508D01*
X-484675Y-15315508D02*
X-465628Y-15305984D01*
X-313247Y-15486936D02*
X-303723Y-15496460D01*
X-303723Y-15496460D02*
X-313247Y-15505984D01*
X-313247Y-15505984D02*
X-322771Y-15496460D01*
X-322771Y-15496460D02*
X-313247Y-15486936D01*
X-313247Y-15486936D02*
X-313247Y-15505984D01*
X-237056Y-15305984D02*
X-113247Y-15305984D01*
X-113247Y-15305984D02*
X-179914Y-15382174D01*
X-179914Y-15382174D02*
X-151342Y-15382174D01*
X-151342Y-15382174D02*
X-132295Y-15391698D01*
X-132295Y-15391698D02*
X-122771Y-15401222D01*
X-122771Y-15401222D02*
X-113247Y-15420269D01*
X-113247Y-15420269D02*
X-113247Y-15467888D01*
X-113247Y-15467888D02*
X-122771Y-15486936D01*
X-122771Y-15486936D02*
X-132295Y-15496460D01*
X-132295Y-15496460D02*
X-151342Y-15505984D01*
X-151342Y-15505984D02*
X-208485Y-15505984D01*
X-208485Y-15505984D02*
X-227533Y-15496460D01*
X-227533Y-15496460D02*
X-237056Y-15486936D01*
X10563Y-15305984D02*
X29610Y-15305984D01*
X29610Y-15305984D02*
X48658Y-15315508D01*
X48658Y-15315508D02*
X58182Y-15325031D01*
X58182Y-15325031D02*
X67705Y-15344079D01*
X67705Y-15344079D02*
X77229Y-15382174D01*
X77229Y-15382174D02*
X77229Y-15429793D01*
X77229Y-15429793D02*
X67705Y-15467888D01*
X67705Y-15467888D02*
X58182Y-15486936D01*
X58182Y-15486936D02*
X48658Y-15496460D01*
X48658Y-15496460D02*
X29610Y-15505984D01*
X29610Y-15505984D02*
X10563Y-15505984D01*
X10563Y-15505984D02*
X-8485Y-15496460D01*
X-8485Y-15496460D02*
X-18009Y-15486936D01*
X-18009Y-15486936D02*
X-27533Y-15467888D01*
X-27533Y-15467888D02*
X-37056Y-15429793D01*
X-37056Y-15429793D02*
X-37056Y-15382174D01*
X-37056Y-15382174D02*
X-27533Y-15344079D01*
X-27533Y-15344079D02*
X-18009Y-15325031D01*
X-18009Y-15325031D02*
X-8485Y-15315508D01*
X-8485Y-15315508D02*
X10563Y-15305984D01*
X201039Y-15305984D02*
X220086Y-15305984D01*
X220086Y-15305984D02*
X239134Y-15315508D01*
X239134Y-15315508D02*
X248658Y-15325031D01*
X248658Y-15325031D02*
X258182Y-15344079D01*
X258182Y-15344079D02*
X267705Y-15382174D01*
X267705Y-15382174D02*
X267705Y-15429793D01*
X267705Y-15429793D02*
X258182Y-15467888D01*
X258182Y-15467888D02*
X248658Y-15486936D01*
X248658Y-15486936D02*
X239134Y-15496460D01*
X239134Y-15496460D02*
X220086Y-15505984D01*
X220086Y-15505984D02*
X201039Y-15505984D01*
X201039Y-15505984D02*
X181991Y-15496460D01*
X181991Y-15496460D02*
X172467Y-15486936D01*
X172467Y-15486936D02*
X162944Y-15467888D01*
X162944Y-15467888D02*
X153420Y-15429793D01*
X153420Y-15429793D02*
X153420Y-15382174D01*
X153420Y-15382174D02*
X162944Y-15344079D01*
X162944Y-15344079D02*
X172467Y-15325031D01*
X172467Y-15325031D02*
X181991Y-15315508D01*
X181991Y-15315508D02*
X201039Y-15305984D01*
X353420Y-15505984D02*
X353420Y-15372650D01*
X353420Y-15391698D02*
X362943Y-15382174D01*
X362943Y-15382174D02*
X381991Y-15372650D01*
X381991Y-15372650D02*
X410563Y-15372650D01*
X410563Y-15372650D02*
X429610Y-15382174D01*
X429610Y-15382174D02*
X439134Y-15401222D01*
X439134Y-15401222D02*
X439134Y-15505984D01*
X439134Y-15401222D02*
X448658Y-15382174D01*
X448658Y-15382174D02*
X467705Y-15372650D01*
X467705Y-15372650D02*
X496277Y-15372650D01*
X496277Y-15372650D02*
X515324Y-15382174D01*
X515324Y-15382174D02*
X524848Y-15401222D01*
X524848Y-15401222D02*
X524848Y-15505984D01*
X620086Y-15505984D02*
X620086Y-15372650D01*
X620086Y-15391698D02*
X629610Y-15382174D01*
X629610Y-15382174D02*
X648658Y-15372650D01*
X648658Y-15372650D02*
X677229Y-15372650D01*
X677229Y-15372650D02*
X696277Y-15382174D01*
X696277Y-15382174D02*
X705801Y-15401222D01*
X705801Y-15401222D02*
X705801Y-15505984D01*
X705801Y-15401222D02*
X715324Y-15382174D01*
X715324Y-15382174D02*
X734372Y-15372650D01*
X734372Y-15372650D02*
X762943Y-15372650D01*
X762943Y-15372650D02*
X781991Y-15382174D01*
X781991Y-15382174D02*
X791515Y-15401222D01*
X791515Y-15401222D02*
X791515Y-15505984D01*
X1181991Y-15296460D02*
X1010563Y-15553603D01*
X1439134Y-15305984D02*
X1458182Y-15305984D01*
X1458182Y-15305984D02*
X1477229Y-15315508D01*
X1477229Y-15315508D02*
X1486753Y-15325031D01*
X1486753Y-15325031D02*
X1496277Y-15344079D01*
X1496277Y-15344079D02*
X1505801Y-15382174D01*
X1505801Y-15382174D02*
X1505801Y-15429793D01*
X1505801Y-15429793D02*
X1496277Y-15467888D01*
X1496277Y-15467888D02*
X1486753Y-15486936D01*
X1486753Y-15486936D02*
X1477229Y-15496460D01*
X1477229Y-15496460D02*
X1458182Y-15505984D01*
X1458182Y-15505984D02*
X1439134Y-15505984D01*
X1439134Y-15505984D02*
X1420086Y-15496460D01*
X1420086Y-15496460D02*
X1410563Y-15486936D01*
X1410563Y-15486936D02*
X1401039Y-15467888D01*
X1401039Y-15467888D02*
X1391515Y-15429793D01*
X1391515Y-15429793D02*
X1391515Y-15382174D01*
X1391515Y-15382174D02*
X1401039Y-15344079D01*
X1401039Y-15344079D02*
X1410563Y-15325031D01*
X1410563Y-15325031D02*
X1420086Y-15315508D01*
X1420086Y-15315508D02*
X1439134Y-15305984D01*
X1591515Y-15486936D02*
X1601039Y-15496460D01*
X1601039Y-15496460D02*
X1591515Y-15505984D01*
X1591515Y-15505984D02*
X1581991Y-15496460D01*
X1581991Y-15496460D02*
X1591515Y-15486936D01*
X1591515Y-15486936D02*
X1591515Y-15505984D01*
X1724848Y-15305984D02*
X1743896Y-15305984D01*
X1743896Y-15305984D02*
X1762944Y-15315508D01*
X1762944Y-15315508D02*
X1772467Y-15325031D01*
X1772467Y-15325031D02*
X1781991Y-15344079D01*
X1781991Y-15344079D02*
X1791515Y-15382174D01*
X1791515Y-15382174D02*
X1791515Y-15429793D01*
X1791515Y-15429793D02*
X1781991Y-15467888D01*
X1781991Y-15467888D02*
X1772467Y-15486936D01*
X1772467Y-15486936D02*
X1762944Y-15496460D01*
X1762944Y-15496460D02*
X1743896Y-15505984D01*
X1743896Y-15505984D02*
X1724848Y-15505984D01*
X1724848Y-15505984D02*
X1705801Y-15496460D01*
X1705801Y-15496460D02*
X1696277Y-15486936D01*
X1696277Y-15486936D02*
X1686753Y-15467888D01*
X1686753Y-15467888D02*
X1677229Y-15429793D01*
X1677229Y-15429793D02*
X1677229Y-15382174D01*
X1677229Y-15382174D02*
X1686753Y-15344079D01*
X1686753Y-15344079D02*
X1696277Y-15325031D01*
X1696277Y-15325031D02*
X1705801Y-15315508D01*
X1705801Y-15315508D02*
X1724848Y-15305984D01*
X1981991Y-15505984D02*
X1867706Y-15505984D01*
X1924848Y-15505984D02*
X1924848Y-15305984D01*
X1924848Y-15305984D02*
X1905801Y-15334555D01*
X1905801Y-15334555D02*
X1886753Y-15353603D01*
X1886753Y-15353603D02*
X1867706Y-15363127D01*
X2172468Y-15505984D02*
X2058182Y-15505984D01*
X2115325Y-15505984D02*
X2115325Y-15305984D01*
X2115325Y-15305984D02*
X2096277Y-15334555D01*
X2096277Y-15334555D02*
X2077229Y-15353603D01*
X2077229Y-15353603D02*
X2058182Y-15363127D01*
X2286753Y-15391698D02*
X2267706Y-15382174D01*
X2267706Y-15382174D02*
X2258182Y-15372650D01*
X2258182Y-15372650D02*
X2248658Y-15353603D01*
X2248658Y-15353603D02*
X2248658Y-15344079D01*
X2248658Y-15344079D02*
X2258182Y-15325031D01*
X2258182Y-15325031D02*
X2267706Y-15315508D01*
X2267706Y-15315508D02*
X2286753Y-15305984D01*
X2286753Y-15305984D02*
X2324849Y-15305984D01*
X2324849Y-15305984D02*
X2343896Y-15315508D01*
X2343896Y-15315508D02*
X2353420Y-15325031D01*
X2353420Y-15325031D02*
X2362944Y-15344079D01*
X2362944Y-15344079D02*
X2362944Y-15353603D01*
X2362944Y-15353603D02*
X2353420Y-15372650D01*
X2353420Y-15372650D02*
X2343896Y-15382174D01*
X2343896Y-15382174D02*
X2324849Y-15391698D01*
X2324849Y-15391698D02*
X2286753Y-15391698D01*
X2286753Y-15391698D02*
X2267706Y-15401222D01*
X2267706Y-15401222D02*
X2258182Y-15410746D01*
X2258182Y-15410746D02*
X2248658Y-15429793D01*
X2248658Y-15429793D02*
X2248658Y-15467888D01*
X2248658Y-15467888D02*
X2258182Y-15486936D01*
X2258182Y-15486936D02*
X2267706Y-15496460D01*
X2267706Y-15496460D02*
X2286753Y-15505984D01*
X2286753Y-15505984D02*
X2324849Y-15505984D01*
X2324849Y-15505984D02*
X2343896Y-15496460D01*
X2343896Y-15496460D02*
X2353420Y-15486936D01*
X2353420Y-15486936D02*
X2362944Y-15467888D01*
X2362944Y-15467888D02*
X2362944Y-15429793D01*
X2362944Y-15429793D02*
X2353420Y-15410746D01*
X2353420Y-15410746D02*
X2343896Y-15401222D01*
X2343896Y-15401222D02*
X2324849Y-15391698D01*
X2439134Y-15305984D02*
X2439134Y-15344079D01*
X2515325Y-15305984D02*
X2515325Y-15344079D01*
X2810563Y-15582174D02*
X2801039Y-15572650D01*
X2801039Y-15572650D02*
X2781991Y-15544079D01*
X2781991Y-15544079D02*
X2772468Y-15525031D01*
X2772468Y-15525031D02*
X2762944Y-15496460D01*
X2762944Y-15496460D02*
X2753420Y-15448841D01*
X2753420Y-15448841D02*
X2753420Y-15410746D01*
X2753420Y-15410746D02*
X2762944Y-15363127D01*
X2762944Y-15363127D02*
X2772468Y-15334555D01*
X2772468Y-15334555D02*
X2781991Y-15315508D01*
X2781991Y-15315508D02*
X2801039Y-15286936D01*
X2801039Y-15286936D02*
X2810563Y-15277412D01*
X2867706Y-15305984D02*
X2991515Y-15305984D01*
X2991515Y-15305984D02*
X2924848Y-15382174D01*
X2924848Y-15382174D02*
X2953420Y-15382174D01*
X2953420Y-15382174D02*
X2972468Y-15391698D01*
X2972468Y-15391698D02*
X2981991Y-15401222D01*
X2981991Y-15401222D02*
X2991515Y-15420269D01*
X2991515Y-15420269D02*
X2991515Y-15467888D01*
X2991515Y-15467888D02*
X2981991Y-15486936D01*
X2981991Y-15486936D02*
X2972468Y-15496460D01*
X2972468Y-15496460D02*
X2953420Y-15505984D01*
X2953420Y-15505984D02*
X2896277Y-15505984D01*
X2896277Y-15505984D02*
X2877229Y-15496460D01*
X2877229Y-15496460D02*
X2867706Y-15486936D01*
X3229610Y-15505984D02*
X3229610Y-15305984D01*
X3315325Y-15505984D02*
X3315325Y-15401222D01*
X3315325Y-15401222D02*
X3305801Y-15382174D01*
X3305801Y-15382174D02*
X3286753Y-15372650D01*
X3286753Y-15372650D02*
X3258182Y-15372650D01*
X3258182Y-15372650D02*
X3239134Y-15382174D01*
X3239134Y-15382174D02*
X3229610Y-15391698D01*
X3439134Y-15505984D02*
X3420087Y-15496460D01*
X3420087Y-15496460D02*
X3410563Y-15486936D01*
X3410563Y-15486936D02*
X3401039Y-15467888D01*
X3401039Y-15467888D02*
X3401039Y-15410746D01*
X3401039Y-15410746D02*
X3410563Y-15391698D01*
X3410563Y-15391698D02*
X3420087Y-15382174D01*
X3420087Y-15382174D02*
X3439134Y-15372650D01*
X3439134Y-15372650D02*
X3467706Y-15372650D01*
X3467706Y-15372650D02*
X3486753Y-15382174D01*
X3486753Y-15382174D02*
X3496277Y-15391698D01*
X3496277Y-15391698D02*
X3505801Y-15410746D01*
X3505801Y-15410746D02*
X3505801Y-15467888D01*
X3505801Y-15467888D02*
X3496277Y-15486936D01*
X3496277Y-15486936D02*
X3486753Y-15496460D01*
X3486753Y-15496460D02*
X3467706Y-15505984D01*
X3467706Y-15505984D02*
X3439134Y-15505984D01*
X3620087Y-15505984D02*
X3601039Y-15496460D01*
X3601039Y-15496460D02*
X3591515Y-15477412D01*
X3591515Y-15477412D02*
X3591515Y-15305984D01*
X3772468Y-15496460D02*
X3753420Y-15505984D01*
X3753420Y-15505984D02*
X3715325Y-15505984D01*
X3715325Y-15505984D02*
X3696277Y-15496460D01*
X3696277Y-15496460D02*
X3686753Y-15477412D01*
X3686753Y-15477412D02*
X3686753Y-15401222D01*
X3686753Y-15401222D02*
X3696277Y-15382174D01*
X3696277Y-15382174D02*
X3715325Y-15372650D01*
X3715325Y-15372650D02*
X3753420Y-15372650D01*
X3753420Y-15372650D02*
X3772468Y-15382174D01*
X3772468Y-15382174D02*
X3781991Y-15401222D01*
X3781991Y-15401222D02*
X3781991Y-15420269D01*
X3781991Y-15420269D02*
X3686753Y-15439317D01*
X3858182Y-15496460D02*
X3877230Y-15505984D01*
X3877230Y-15505984D02*
X3915325Y-15505984D01*
X3915325Y-15505984D02*
X3934372Y-15496460D01*
X3934372Y-15496460D02*
X3943896Y-15477412D01*
X3943896Y-15477412D02*
X3943896Y-15467888D01*
X3943896Y-15467888D02*
X3934372Y-15448841D01*
X3934372Y-15448841D02*
X3915325Y-15439317D01*
X3915325Y-15439317D02*
X3886753Y-15439317D01*
X3886753Y-15439317D02*
X3867706Y-15429793D01*
X3867706Y-15429793D02*
X3858182Y-15410746D01*
X3858182Y-15410746D02*
X3858182Y-15401222D01*
X3858182Y-15401222D02*
X3867706Y-15382174D01*
X3867706Y-15382174D02*
X3886753Y-15372650D01*
X3886753Y-15372650D02*
X3915325Y-15372650D01*
X3915325Y-15372650D02*
X3934372Y-15382174D01*
X4010563Y-15582174D02*
X4020087Y-15572650D01*
X4020087Y-15572650D02*
X4039134Y-15544079D01*
X4039134Y-15544079D02*
X4048658Y-15525031D01*
X4048658Y-15525031D02*
X4058182Y-15496460D01*
X4058182Y-15496460D02*
X4067706Y-15448841D01*
X4067706Y-15448841D02*
X4067706Y-15410746D01*
X4067706Y-15410746D02*
X4058182Y-15363127D01*
X4058182Y-15363127D02*
X4048658Y-15334555D01*
X4048658Y-15334555D02*
X4039134Y-15315508D01*
X4039134Y-15315508D02*
X4020087Y-15286936D01*
X4020087Y-15286936D02*
X4010563Y-15277412D01*
D12*
X-784500Y-15658500D02*
X-784500Y-15698500D01*
X-804500Y-15678500D02*
X-764500Y-15678500D01*
D11*
X-465628Y-15569984D02*
X-446580Y-15569984D01*
X-446580Y-15569984D02*
X-427533Y-15579508D01*
X-427533Y-15579508D02*
X-418009Y-15589031D01*
X-418009Y-15589031D02*
X-408485Y-15608079D01*
X-408485Y-15608079D02*
X-398961Y-15646174D01*
X-398961Y-15646174D02*
X-398961Y-15693793D01*
X-398961Y-15693793D02*
X-408485Y-15731888D01*
X-408485Y-15731888D02*
X-418009Y-15750936D01*
X-418009Y-15750936D02*
X-427533Y-15760460D01*
X-427533Y-15760460D02*
X-446580Y-15769984D01*
X-446580Y-15769984D02*
X-465628Y-15769984D01*
X-465628Y-15769984D02*
X-484675Y-15760460D01*
X-484675Y-15760460D02*
X-494199Y-15750936D01*
X-494199Y-15750936D02*
X-503723Y-15731888D01*
X-503723Y-15731888D02*
X-513247Y-15693793D01*
X-513247Y-15693793D02*
X-513247Y-15646174D01*
X-513247Y-15646174D02*
X-503723Y-15608079D01*
X-503723Y-15608079D02*
X-494199Y-15589031D01*
X-494199Y-15589031D02*
X-484675Y-15579508D01*
X-484675Y-15579508D02*
X-465628Y-15569984D01*
X-313247Y-15750936D02*
X-303723Y-15760460D01*
X-303723Y-15760460D02*
X-313247Y-15769984D01*
X-313247Y-15769984D02*
X-322771Y-15760460D01*
X-322771Y-15760460D02*
X-313247Y-15750936D01*
X-313247Y-15750936D02*
X-313247Y-15769984D01*
X-132295Y-15636650D02*
X-132295Y-15769984D01*
X-179914Y-15560460D02*
X-227533Y-15703317D01*
X-227533Y-15703317D02*
X-103723Y-15703317D01*
X10563Y-15569984D02*
X29610Y-15569984D01*
X29610Y-15569984D02*
X48658Y-15579508D01*
X48658Y-15579508D02*
X58182Y-15589031D01*
X58182Y-15589031D02*
X67705Y-15608079D01*
X67705Y-15608079D02*
X77229Y-15646174D01*
X77229Y-15646174D02*
X77229Y-15693793D01*
X77229Y-15693793D02*
X67705Y-15731888D01*
X67705Y-15731888D02*
X58182Y-15750936D01*
X58182Y-15750936D02*
X48658Y-15760460D01*
X48658Y-15760460D02*
X29610Y-15769984D01*
X29610Y-15769984D02*
X10563Y-15769984D01*
X10563Y-15769984D02*
X-8485Y-15760460D01*
X-8485Y-15760460D02*
X-18009Y-15750936D01*
X-18009Y-15750936D02*
X-27533Y-15731888D01*
X-27533Y-15731888D02*
X-37056Y-15693793D01*
X-37056Y-15693793D02*
X-37056Y-15646174D01*
X-37056Y-15646174D02*
X-27533Y-15608079D01*
X-27533Y-15608079D02*
X-18009Y-15589031D01*
X-18009Y-15589031D02*
X-8485Y-15579508D01*
X-8485Y-15579508D02*
X10563Y-15569984D01*
X201039Y-15569984D02*
X220086Y-15569984D01*
X220086Y-15569984D02*
X239134Y-15579508D01*
X239134Y-15579508D02*
X248658Y-15589031D01*
X248658Y-15589031D02*
X258182Y-15608079D01*
X258182Y-15608079D02*
X267705Y-15646174D01*
X267705Y-15646174D02*
X267705Y-15693793D01*
X267705Y-15693793D02*
X258182Y-15731888D01*
X258182Y-15731888D02*
X248658Y-15750936D01*
X248658Y-15750936D02*
X239134Y-15760460D01*
X239134Y-15760460D02*
X220086Y-15769984D01*
X220086Y-15769984D02*
X201039Y-15769984D01*
X201039Y-15769984D02*
X181991Y-15760460D01*
X181991Y-15760460D02*
X172467Y-15750936D01*
X172467Y-15750936D02*
X162944Y-15731888D01*
X162944Y-15731888D02*
X153420Y-15693793D01*
X153420Y-15693793D02*
X153420Y-15646174D01*
X153420Y-15646174D02*
X162944Y-15608079D01*
X162944Y-15608079D02*
X172467Y-15589031D01*
X172467Y-15589031D02*
X181991Y-15579508D01*
X181991Y-15579508D02*
X201039Y-15569984D01*
X353420Y-15769984D02*
X353420Y-15636650D01*
X353420Y-15655698D02*
X362943Y-15646174D01*
X362943Y-15646174D02*
X381991Y-15636650D01*
X381991Y-15636650D02*
X410563Y-15636650D01*
X410563Y-15636650D02*
X429610Y-15646174D01*
X429610Y-15646174D02*
X439134Y-15665222D01*
X439134Y-15665222D02*
X439134Y-15769984D01*
X439134Y-15665222D02*
X448658Y-15646174D01*
X448658Y-15646174D02*
X467705Y-15636650D01*
X467705Y-15636650D02*
X496277Y-15636650D01*
X496277Y-15636650D02*
X515324Y-15646174D01*
X515324Y-15646174D02*
X524848Y-15665222D01*
X524848Y-15665222D02*
X524848Y-15769984D01*
X620086Y-15769984D02*
X620086Y-15636650D01*
X620086Y-15655698D02*
X629610Y-15646174D01*
X629610Y-15646174D02*
X648658Y-15636650D01*
X648658Y-15636650D02*
X677229Y-15636650D01*
X677229Y-15636650D02*
X696277Y-15646174D01*
X696277Y-15646174D02*
X705801Y-15665222D01*
X705801Y-15665222D02*
X705801Y-15769984D01*
X705801Y-15665222D02*
X715324Y-15646174D01*
X715324Y-15646174D02*
X734372Y-15636650D01*
X734372Y-15636650D02*
X762943Y-15636650D01*
X762943Y-15636650D02*
X781991Y-15646174D01*
X781991Y-15646174D02*
X791515Y-15665222D01*
X791515Y-15665222D02*
X791515Y-15769984D01*
X1181991Y-15560460D02*
X1010563Y-15817603D01*
X1439134Y-15569984D02*
X1458182Y-15569984D01*
X1458182Y-15569984D02*
X1477229Y-15579508D01*
X1477229Y-15579508D02*
X1486753Y-15589031D01*
X1486753Y-15589031D02*
X1496277Y-15608079D01*
X1496277Y-15608079D02*
X1505801Y-15646174D01*
X1505801Y-15646174D02*
X1505801Y-15693793D01*
X1505801Y-15693793D02*
X1496277Y-15731888D01*
X1496277Y-15731888D02*
X1486753Y-15750936D01*
X1486753Y-15750936D02*
X1477229Y-15760460D01*
X1477229Y-15760460D02*
X1458182Y-15769984D01*
X1458182Y-15769984D02*
X1439134Y-15769984D01*
X1439134Y-15769984D02*
X1420086Y-15760460D01*
X1420086Y-15760460D02*
X1410563Y-15750936D01*
X1410563Y-15750936D02*
X1401039Y-15731888D01*
X1401039Y-15731888D02*
X1391515Y-15693793D01*
X1391515Y-15693793D02*
X1391515Y-15646174D01*
X1391515Y-15646174D02*
X1401039Y-15608079D01*
X1401039Y-15608079D02*
X1410563Y-15589031D01*
X1410563Y-15589031D02*
X1420086Y-15579508D01*
X1420086Y-15579508D02*
X1439134Y-15569984D01*
X1591515Y-15750936D02*
X1601039Y-15760460D01*
X1601039Y-15760460D02*
X1591515Y-15769984D01*
X1591515Y-15769984D02*
X1581991Y-15760460D01*
X1581991Y-15760460D02*
X1591515Y-15750936D01*
X1591515Y-15750936D02*
X1591515Y-15769984D01*
X1724848Y-15569984D02*
X1743896Y-15569984D01*
X1743896Y-15569984D02*
X1762944Y-15579508D01*
X1762944Y-15579508D02*
X1772467Y-15589031D01*
X1772467Y-15589031D02*
X1781991Y-15608079D01*
X1781991Y-15608079D02*
X1791515Y-15646174D01*
X1791515Y-15646174D02*
X1791515Y-15693793D01*
X1791515Y-15693793D02*
X1781991Y-15731888D01*
X1781991Y-15731888D02*
X1772467Y-15750936D01*
X1772467Y-15750936D02*
X1762944Y-15760460D01*
X1762944Y-15760460D02*
X1743896Y-15769984D01*
X1743896Y-15769984D02*
X1724848Y-15769984D01*
X1724848Y-15769984D02*
X1705801Y-15760460D01*
X1705801Y-15760460D02*
X1696277Y-15750936D01*
X1696277Y-15750936D02*
X1686753Y-15731888D01*
X1686753Y-15731888D02*
X1677229Y-15693793D01*
X1677229Y-15693793D02*
X1677229Y-15646174D01*
X1677229Y-15646174D02*
X1686753Y-15608079D01*
X1686753Y-15608079D02*
X1696277Y-15589031D01*
X1696277Y-15589031D02*
X1705801Y-15579508D01*
X1705801Y-15579508D02*
X1724848Y-15569984D01*
X1981991Y-15769984D02*
X1867706Y-15769984D01*
X1924848Y-15769984D02*
X1924848Y-15569984D01*
X1924848Y-15569984D02*
X1905801Y-15598555D01*
X1905801Y-15598555D02*
X1886753Y-15617603D01*
X1886753Y-15617603D02*
X1867706Y-15627127D01*
X2162944Y-15569984D02*
X2067706Y-15569984D01*
X2067706Y-15569984D02*
X2058182Y-15665222D01*
X2058182Y-15665222D02*
X2067706Y-15655698D01*
X2067706Y-15655698D02*
X2086753Y-15646174D01*
X2086753Y-15646174D02*
X2134372Y-15646174D01*
X2134372Y-15646174D02*
X2153420Y-15655698D01*
X2153420Y-15655698D02*
X2162944Y-15665222D01*
X2162944Y-15665222D02*
X2172468Y-15684269D01*
X2172468Y-15684269D02*
X2172468Y-15731888D01*
X2172468Y-15731888D02*
X2162944Y-15750936D01*
X2162944Y-15750936D02*
X2153420Y-15760460D01*
X2153420Y-15760460D02*
X2134372Y-15769984D01*
X2134372Y-15769984D02*
X2086753Y-15769984D01*
X2086753Y-15769984D02*
X2067706Y-15760460D01*
X2067706Y-15760460D02*
X2058182Y-15750936D01*
X2239134Y-15569984D02*
X2372468Y-15569984D01*
X2372468Y-15569984D02*
X2286753Y-15769984D01*
X2439134Y-15569984D02*
X2439134Y-15608079D01*
X2515325Y-15569984D02*
X2515325Y-15608079D01*
X2810563Y-15846174D02*
X2801039Y-15836650D01*
X2801039Y-15836650D02*
X2781991Y-15808079D01*
X2781991Y-15808079D02*
X2772468Y-15789031D01*
X2772468Y-15789031D02*
X2762944Y-15760460D01*
X2762944Y-15760460D02*
X2753420Y-15712841D01*
X2753420Y-15712841D02*
X2753420Y-15674746D01*
X2753420Y-15674746D02*
X2762944Y-15627127D01*
X2762944Y-15627127D02*
X2772468Y-15598555D01*
X2772468Y-15598555D02*
X2781991Y-15579508D01*
X2781991Y-15579508D02*
X2801039Y-15550936D01*
X2801039Y-15550936D02*
X2810563Y-15541412D01*
X2915325Y-15655698D02*
X2896277Y-15646174D01*
X2896277Y-15646174D02*
X2886753Y-15636650D01*
X2886753Y-15636650D02*
X2877229Y-15617603D01*
X2877229Y-15617603D02*
X2877229Y-15608079D01*
X2877229Y-15608079D02*
X2886753Y-15589031D01*
X2886753Y-15589031D02*
X2896277Y-15579508D01*
X2896277Y-15579508D02*
X2915325Y-15569984D01*
X2915325Y-15569984D02*
X2953420Y-15569984D01*
X2953420Y-15569984D02*
X2972468Y-15579508D01*
X2972468Y-15579508D02*
X2981991Y-15589031D01*
X2981991Y-15589031D02*
X2991515Y-15608079D01*
X2991515Y-15608079D02*
X2991515Y-15617603D01*
X2991515Y-15617603D02*
X2981991Y-15636650D01*
X2981991Y-15636650D02*
X2972468Y-15646174D01*
X2972468Y-15646174D02*
X2953420Y-15655698D01*
X2953420Y-15655698D02*
X2915325Y-15655698D01*
X2915325Y-15655698D02*
X2896277Y-15665222D01*
X2896277Y-15665222D02*
X2886753Y-15674746D01*
X2886753Y-15674746D02*
X2877229Y-15693793D01*
X2877229Y-15693793D02*
X2877229Y-15731888D01*
X2877229Y-15731888D02*
X2886753Y-15750936D01*
X2886753Y-15750936D02*
X2896277Y-15760460D01*
X2896277Y-15760460D02*
X2915325Y-15769984D01*
X2915325Y-15769984D02*
X2953420Y-15769984D01*
X2953420Y-15769984D02*
X2972468Y-15760460D01*
X2972468Y-15760460D02*
X2981991Y-15750936D01*
X2981991Y-15750936D02*
X2991515Y-15731888D01*
X2991515Y-15731888D02*
X2991515Y-15693793D01*
X2991515Y-15693793D02*
X2981991Y-15674746D01*
X2981991Y-15674746D02*
X2972468Y-15665222D01*
X2972468Y-15665222D02*
X2953420Y-15655698D01*
X3172468Y-15569984D02*
X3077229Y-15569984D01*
X3077229Y-15569984D02*
X3067706Y-15665222D01*
X3067706Y-15665222D02*
X3077229Y-15655698D01*
X3077229Y-15655698D02*
X3096277Y-15646174D01*
X3096277Y-15646174D02*
X3143896Y-15646174D01*
X3143896Y-15646174D02*
X3162944Y-15655698D01*
X3162944Y-15655698D02*
X3172468Y-15665222D01*
X3172468Y-15665222D02*
X3181991Y-15684269D01*
X3181991Y-15684269D02*
X3181991Y-15731888D01*
X3181991Y-15731888D02*
X3172468Y-15750936D01*
X3172468Y-15750936D02*
X3162944Y-15760460D01*
X3162944Y-15760460D02*
X3143896Y-15769984D01*
X3143896Y-15769984D02*
X3096277Y-15769984D01*
X3096277Y-15769984D02*
X3077229Y-15760460D01*
X3077229Y-15760460D02*
X3067706Y-15750936D01*
X3420087Y-15769984D02*
X3420087Y-15569984D01*
X3505801Y-15769984D02*
X3505801Y-15665222D01*
X3505801Y-15665222D02*
X3496277Y-15646174D01*
X3496277Y-15646174D02*
X3477230Y-15636650D01*
X3477230Y-15636650D02*
X3448658Y-15636650D01*
X3448658Y-15636650D02*
X3429610Y-15646174D01*
X3429610Y-15646174D02*
X3420087Y-15655698D01*
X3629610Y-15769984D02*
X3610563Y-15760460D01*
X3610563Y-15760460D02*
X3601039Y-15750936D01*
X3601039Y-15750936D02*
X3591515Y-15731888D01*
X3591515Y-15731888D02*
X3591515Y-15674746D01*
X3591515Y-15674746D02*
X3601039Y-15655698D01*
X3601039Y-15655698D02*
X3610563Y-15646174D01*
X3610563Y-15646174D02*
X3629610Y-15636650D01*
X3629610Y-15636650D02*
X3658182Y-15636650D01*
X3658182Y-15636650D02*
X3677230Y-15646174D01*
X3677230Y-15646174D02*
X3686753Y-15655698D01*
X3686753Y-15655698D02*
X3696277Y-15674746D01*
X3696277Y-15674746D02*
X3696277Y-15731888D01*
X3696277Y-15731888D02*
X3686753Y-15750936D01*
X3686753Y-15750936D02*
X3677230Y-15760460D01*
X3677230Y-15760460D02*
X3658182Y-15769984D01*
X3658182Y-15769984D02*
X3629610Y-15769984D01*
X3810563Y-15769984D02*
X3791515Y-15760460D01*
X3791515Y-15760460D02*
X3781991Y-15741412D01*
X3781991Y-15741412D02*
X3781991Y-15569984D01*
X3962944Y-15760460D02*
X3943896Y-15769984D01*
X3943896Y-15769984D02*
X3905801Y-15769984D01*
X3905801Y-15769984D02*
X3886753Y-15760460D01*
X3886753Y-15760460D02*
X3877230Y-15741412D01*
X3877230Y-15741412D02*
X3877230Y-15665222D01*
X3877230Y-15665222D02*
X3886753Y-15646174D01*
X3886753Y-15646174D02*
X3905801Y-15636650D01*
X3905801Y-15636650D02*
X3943896Y-15636650D01*
X3943896Y-15636650D02*
X3962944Y-15646174D01*
X3962944Y-15646174D02*
X3972468Y-15665222D01*
X3972468Y-15665222D02*
X3972468Y-15684269D01*
X3972468Y-15684269D02*
X3877230Y-15703317D01*
X4048658Y-15760460D02*
X4067706Y-15769984D01*
X4067706Y-15769984D02*
X4105801Y-15769984D01*
X4105801Y-15769984D02*
X4124849Y-15760460D01*
X4124849Y-15760460D02*
X4134372Y-15741412D01*
X4134372Y-15741412D02*
X4134372Y-15731888D01*
X4134372Y-15731888D02*
X4124849Y-15712841D01*
X4124849Y-15712841D02*
X4105801Y-15703317D01*
X4105801Y-15703317D02*
X4077230Y-15703317D01*
X4077230Y-15703317D02*
X4058182Y-15693793D01*
X4058182Y-15693793D02*
X4048658Y-15674746D01*
X4048658Y-15674746D02*
X4048658Y-15665222D01*
X4048658Y-15665222D02*
X4058182Y-15646174D01*
X4058182Y-15646174D02*
X4077230Y-15636650D01*
X4077230Y-15636650D02*
X4105801Y-15636650D01*
X4105801Y-15636650D02*
X4124849Y-15646174D01*
X4201039Y-15846174D02*
X4210563Y-15836650D01*
X4210563Y-15836650D02*
X4229611Y-15808079D01*
X4229611Y-15808079D02*
X4239134Y-15789031D01*
X4239134Y-15789031D02*
X4248658Y-15760460D01*
X4248658Y-15760460D02*
X4258182Y-15712841D01*
X4258182Y-15712841D02*
X4258182Y-15674746D01*
X4258182Y-15674746D02*
X4248658Y-15627127D01*
X4248658Y-15627127D02*
X4239134Y-15598555D01*
X4239134Y-15598555D02*
X4229611Y-15579508D01*
X4229611Y-15579508D02*
X4210563Y-15550936D01*
X4210563Y-15550936D02*
X4201039Y-15541412D01*
D12*
X-776215Y-15970784D02*
X-776215Y-15914215D01*
X-832784Y-15914215D01*
X-832784Y-15970784D01*
X-776215Y-15970784D01*
D11*
X-465628Y-15833984D02*
X-446580Y-15833984D01*
X-446580Y-15833984D02*
X-427533Y-15843508D01*
X-427533Y-15843508D02*
X-418009Y-15853031D01*
X-418009Y-15853031D02*
X-408485Y-15872079D01*
X-408485Y-15872079D02*
X-398961Y-15910174D01*
X-398961Y-15910174D02*
X-398961Y-15957793D01*
X-398961Y-15957793D02*
X-408485Y-15995888D01*
X-408485Y-15995888D02*
X-418009Y-16014936D01*
X-418009Y-16014936D02*
X-427533Y-16024460D01*
X-427533Y-16024460D02*
X-446580Y-16033984D01*
X-446580Y-16033984D02*
X-465628Y-16033984D01*
X-465628Y-16033984D02*
X-484675Y-16024460D01*
X-484675Y-16024460D02*
X-494199Y-16014936D01*
X-494199Y-16014936D02*
X-503723Y-15995888D01*
X-503723Y-15995888D02*
X-513247Y-15957793D01*
X-513247Y-15957793D02*
X-513247Y-15910174D01*
X-513247Y-15910174D02*
X-503723Y-15872079D01*
X-503723Y-15872079D02*
X-494199Y-15853031D01*
X-494199Y-15853031D02*
X-484675Y-15843508D01*
X-484675Y-15843508D02*
X-465628Y-15833984D01*
X-313247Y-16014936D02*
X-303723Y-16024460D01*
X-303723Y-16024460D02*
X-313247Y-16033984D01*
X-313247Y-16033984D02*
X-322771Y-16024460D01*
X-322771Y-16024460D02*
X-313247Y-16014936D01*
X-313247Y-16014936D02*
X-313247Y-16033984D01*
X-189437Y-15919698D02*
X-208485Y-15910174D01*
X-208485Y-15910174D02*
X-218009Y-15900650D01*
X-218009Y-15900650D02*
X-227533Y-15881603D01*
X-227533Y-15881603D02*
X-227533Y-15872079D01*
X-227533Y-15872079D02*
X-218009Y-15853031D01*
X-218009Y-15853031D02*
X-208485Y-15843508D01*
X-208485Y-15843508D02*
X-189437Y-15833984D01*
X-189437Y-15833984D02*
X-151342Y-15833984D01*
X-151342Y-15833984D02*
X-132295Y-15843508D01*
X-132295Y-15843508D02*
X-122771Y-15853031D01*
X-122771Y-15853031D02*
X-113247Y-15872079D01*
X-113247Y-15872079D02*
X-113247Y-15881603D01*
X-113247Y-15881603D02*
X-122771Y-15900650D01*
X-122771Y-15900650D02*
X-132295Y-15910174D01*
X-132295Y-15910174D02*
X-151342Y-15919698D01*
X-151342Y-15919698D02*
X-189437Y-15919698D01*
X-189437Y-15919698D02*
X-208485Y-15929222D01*
X-208485Y-15929222D02*
X-218009Y-15938746D01*
X-218009Y-15938746D02*
X-227533Y-15957793D01*
X-227533Y-15957793D02*
X-227533Y-15995888D01*
X-227533Y-15995888D02*
X-218009Y-16014936D01*
X-218009Y-16014936D02*
X-208485Y-16024460D01*
X-208485Y-16024460D02*
X-189437Y-16033984D01*
X-189437Y-16033984D02*
X-151342Y-16033984D01*
X-151342Y-16033984D02*
X-132295Y-16024460D01*
X-132295Y-16024460D02*
X-122771Y-16014936D01*
X-122771Y-16014936D02*
X-113247Y-15995888D01*
X-113247Y-15995888D02*
X-113247Y-15957793D01*
X-113247Y-15957793D02*
X-122771Y-15938746D01*
X-122771Y-15938746D02*
X-132295Y-15929222D01*
X-132295Y-15929222D02*
X-151342Y-15919698D01*
X10563Y-15833984D02*
X29610Y-15833984D01*
X29610Y-15833984D02*
X48658Y-15843508D01*
X48658Y-15843508D02*
X58182Y-15853031D01*
X58182Y-15853031D02*
X67705Y-15872079D01*
X67705Y-15872079D02*
X77229Y-15910174D01*
X77229Y-15910174D02*
X77229Y-15957793D01*
X77229Y-15957793D02*
X67705Y-15995888D01*
X67705Y-15995888D02*
X58182Y-16014936D01*
X58182Y-16014936D02*
X48658Y-16024460D01*
X48658Y-16024460D02*
X29610Y-16033984D01*
X29610Y-16033984D02*
X10563Y-16033984D01*
X10563Y-16033984D02*
X-8485Y-16024460D01*
X-8485Y-16024460D02*
X-18009Y-16014936D01*
X-18009Y-16014936D02*
X-27533Y-15995888D01*
X-27533Y-15995888D02*
X-37056Y-15957793D01*
X-37056Y-15957793D02*
X-37056Y-15910174D01*
X-37056Y-15910174D02*
X-27533Y-15872079D01*
X-27533Y-15872079D02*
X-18009Y-15853031D01*
X-18009Y-15853031D02*
X-8485Y-15843508D01*
X-8485Y-15843508D02*
X10563Y-15833984D01*
X201039Y-15833984D02*
X220086Y-15833984D01*
X220086Y-15833984D02*
X239134Y-15843508D01*
X239134Y-15843508D02*
X248658Y-15853031D01*
X248658Y-15853031D02*
X258182Y-15872079D01*
X258182Y-15872079D02*
X267705Y-15910174D01*
X267705Y-15910174D02*
X267705Y-15957793D01*
X267705Y-15957793D02*
X258182Y-15995888D01*
X258182Y-15995888D02*
X248658Y-16014936D01*
X248658Y-16014936D02*
X239134Y-16024460D01*
X239134Y-16024460D02*
X220086Y-16033984D01*
X220086Y-16033984D02*
X201039Y-16033984D01*
X201039Y-16033984D02*
X181991Y-16024460D01*
X181991Y-16024460D02*
X172467Y-16014936D01*
X172467Y-16014936D02*
X162944Y-15995888D01*
X162944Y-15995888D02*
X153420Y-15957793D01*
X153420Y-15957793D02*
X153420Y-15910174D01*
X153420Y-15910174D02*
X162944Y-15872079D01*
X162944Y-15872079D02*
X172467Y-15853031D01*
X172467Y-15853031D02*
X181991Y-15843508D01*
X181991Y-15843508D02*
X201039Y-15833984D01*
X353420Y-16033984D02*
X353420Y-15900650D01*
X353420Y-15919698D02*
X362943Y-15910174D01*
X362943Y-15910174D02*
X381991Y-15900650D01*
X381991Y-15900650D02*
X410563Y-15900650D01*
X410563Y-15900650D02*
X429610Y-15910174D01*
X429610Y-15910174D02*
X439134Y-15929222D01*
X439134Y-15929222D02*
X439134Y-16033984D01*
X439134Y-15929222D02*
X448658Y-15910174D01*
X448658Y-15910174D02*
X467705Y-15900650D01*
X467705Y-15900650D02*
X496277Y-15900650D01*
X496277Y-15900650D02*
X515324Y-15910174D01*
X515324Y-15910174D02*
X524848Y-15929222D01*
X524848Y-15929222D02*
X524848Y-16033984D01*
X620086Y-16033984D02*
X620086Y-15900650D01*
X620086Y-15919698D02*
X629610Y-15910174D01*
X629610Y-15910174D02*
X648658Y-15900650D01*
X648658Y-15900650D02*
X677229Y-15900650D01*
X677229Y-15900650D02*
X696277Y-15910174D01*
X696277Y-15910174D02*
X705801Y-15929222D01*
X705801Y-15929222D02*
X705801Y-16033984D01*
X705801Y-15929222D02*
X715324Y-15910174D01*
X715324Y-15910174D02*
X734372Y-15900650D01*
X734372Y-15900650D02*
X762943Y-15900650D01*
X762943Y-15900650D02*
X781991Y-15910174D01*
X781991Y-15910174D02*
X791515Y-15929222D01*
X791515Y-15929222D02*
X791515Y-16033984D01*
X1181991Y-15824460D02*
X1010563Y-16081603D01*
X1439134Y-15833984D02*
X1458182Y-15833984D01*
X1458182Y-15833984D02*
X1477229Y-15843508D01*
X1477229Y-15843508D02*
X1486753Y-15853031D01*
X1486753Y-15853031D02*
X1496277Y-15872079D01*
X1496277Y-15872079D02*
X1505801Y-15910174D01*
X1505801Y-15910174D02*
X1505801Y-15957793D01*
X1505801Y-15957793D02*
X1496277Y-15995888D01*
X1496277Y-15995888D02*
X1486753Y-16014936D01*
X1486753Y-16014936D02*
X1477229Y-16024460D01*
X1477229Y-16024460D02*
X1458182Y-16033984D01*
X1458182Y-16033984D02*
X1439134Y-16033984D01*
X1439134Y-16033984D02*
X1420086Y-16024460D01*
X1420086Y-16024460D02*
X1410563Y-16014936D01*
X1410563Y-16014936D02*
X1401039Y-15995888D01*
X1401039Y-15995888D02*
X1391515Y-15957793D01*
X1391515Y-15957793D02*
X1391515Y-15910174D01*
X1391515Y-15910174D02*
X1401039Y-15872079D01*
X1401039Y-15872079D02*
X1410563Y-15853031D01*
X1410563Y-15853031D02*
X1420086Y-15843508D01*
X1420086Y-15843508D02*
X1439134Y-15833984D01*
X1591515Y-16014936D02*
X1601039Y-16024460D01*
X1601039Y-16024460D02*
X1591515Y-16033984D01*
X1591515Y-16033984D02*
X1581991Y-16024460D01*
X1581991Y-16024460D02*
X1591515Y-16014936D01*
X1591515Y-16014936D02*
X1591515Y-16033984D01*
X1724848Y-15833984D02*
X1743896Y-15833984D01*
X1743896Y-15833984D02*
X1762944Y-15843508D01*
X1762944Y-15843508D02*
X1772467Y-15853031D01*
X1772467Y-15853031D02*
X1781991Y-15872079D01*
X1781991Y-15872079D02*
X1791515Y-15910174D01*
X1791515Y-15910174D02*
X1791515Y-15957793D01*
X1791515Y-15957793D02*
X1781991Y-15995888D01*
X1781991Y-15995888D02*
X1772467Y-16014936D01*
X1772467Y-16014936D02*
X1762944Y-16024460D01*
X1762944Y-16024460D02*
X1743896Y-16033984D01*
X1743896Y-16033984D02*
X1724848Y-16033984D01*
X1724848Y-16033984D02*
X1705801Y-16024460D01*
X1705801Y-16024460D02*
X1696277Y-16014936D01*
X1696277Y-16014936D02*
X1686753Y-15995888D01*
X1686753Y-15995888D02*
X1677229Y-15957793D01*
X1677229Y-15957793D02*
X1677229Y-15910174D01*
X1677229Y-15910174D02*
X1686753Y-15872079D01*
X1686753Y-15872079D02*
X1696277Y-15853031D01*
X1696277Y-15853031D02*
X1705801Y-15843508D01*
X1705801Y-15843508D02*
X1724848Y-15833984D01*
X1858182Y-15833984D02*
X1981991Y-15833984D01*
X1981991Y-15833984D02*
X1915325Y-15910174D01*
X1915325Y-15910174D02*
X1943896Y-15910174D01*
X1943896Y-15910174D02*
X1962944Y-15919698D01*
X1962944Y-15919698D02*
X1972467Y-15929222D01*
X1972467Y-15929222D02*
X1981991Y-15948269D01*
X1981991Y-15948269D02*
X1981991Y-15995888D01*
X1981991Y-15995888D02*
X1972467Y-16014936D01*
X1972467Y-16014936D02*
X1962944Y-16024460D01*
X1962944Y-16024460D02*
X1943896Y-16033984D01*
X1943896Y-16033984D02*
X1886753Y-16033984D01*
X1886753Y-16033984D02*
X1867706Y-16024460D01*
X1867706Y-16024460D02*
X1858182Y-16014936D01*
X2172468Y-16033984D02*
X2058182Y-16033984D01*
X2115325Y-16033984D02*
X2115325Y-15833984D01*
X2115325Y-15833984D02*
X2096277Y-15862555D01*
X2096277Y-15862555D02*
X2077229Y-15881603D01*
X2077229Y-15881603D02*
X2058182Y-15891127D01*
X2353420Y-15833984D02*
X2258182Y-15833984D01*
X2258182Y-15833984D02*
X2248658Y-15929222D01*
X2248658Y-15929222D02*
X2258182Y-15919698D01*
X2258182Y-15919698D02*
X2277229Y-15910174D01*
X2277229Y-15910174D02*
X2324849Y-15910174D01*
X2324849Y-15910174D02*
X2343896Y-15919698D01*
X2343896Y-15919698D02*
X2353420Y-15929222D01*
X2353420Y-15929222D02*
X2362944Y-15948269D01*
X2362944Y-15948269D02*
X2362944Y-15995888D01*
X2362944Y-15995888D02*
X2353420Y-16014936D01*
X2353420Y-16014936D02*
X2343896Y-16024460D01*
X2343896Y-16024460D02*
X2324849Y-16033984D01*
X2324849Y-16033984D02*
X2277229Y-16033984D01*
X2277229Y-16033984D02*
X2258182Y-16024460D01*
X2258182Y-16024460D02*
X2248658Y-16014936D01*
X2439134Y-15833984D02*
X2439134Y-15872079D01*
X2515325Y-15833984D02*
X2515325Y-15872079D01*
X2810563Y-16110174D02*
X2801039Y-16100650D01*
X2801039Y-16100650D02*
X2781991Y-16072079D01*
X2781991Y-16072079D02*
X2772468Y-16053031D01*
X2772468Y-16053031D02*
X2762944Y-16024460D01*
X2762944Y-16024460D02*
X2753420Y-15976841D01*
X2753420Y-15976841D02*
X2753420Y-15938746D01*
X2753420Y-15938746D02*
X2762944Y-15891127D01*
X2762944Y-15891127D02*
X2772468Y-15862555D01*
X2772468Y-15862555D02*
X2781991Y-15843508D01*
X2781991Y-15843508D02*
X2801039Y-15814936D01*
X2801039Y-15814936D02*
X2810563Y-15805412D01*
X2991515Y-16033984D02*
X2877229Y-16033984D01*
X2934372Y-16033984D02*
X2934372Y-15833984D01*
X2934372Y-15833984D02*
X2915325Y-15862555D01*
X2915325Y-15862555D02*
X2896277Y-15881603D01*
X2896277Y-15881603D02*
X2877229Y-15891127D01*
X3067706Y-15853031D02*
X3077229Y-15843508D01*
X3077229Y-15843508D02*
X3096277Y-15833984D01*
X3096277Y-15833984D02*
X3143896Y-15833984D01*
X3143896Y-15833984D02*
X3162944Y-15843508D01*
X3162944Y-15843508D02*
X3172468Y-15853031D01*
X3172468Y-15853031D02*
X3181991Y-15872079D01*
X3181991Y-15872079D02*
X3181991Y-15891127D01*
X3181991Y-15891127D02*
X3172468Y-15919698D01*
X3172468Y-15919698D02*
X3058182Y-16033984D01*
X3058182Y-16033984D02*
X3181991Y-16033984D01*
X3305801Y-15833984D02*
X3324849Y-15833984D01*
X3324849Y-15833984D02*
X3343896Y-15843508D01*
X3343896Y-15843508D02*
X3353420Y-15853031D01*
X3353420Y-15853031D02*
X3362944Y-15872079D01*
X3362944Y-15872079D02*
X3372468Y-15910174D01*
X3372468Y-15910174D02*
X3372468Y-15957793D01*
X3372468Y-15957793D02*
X3362944Y-15995888D01*
X3362944Y-15995888D02*
X3353420Y-16014936D01*
X3353420Y-16014936D02*
X3343896Y-16024460D01*
X3343896Y-16024460D02*
X3324849Y-16033984D01*
X3324849Y-16033984D02*
X3305801Y-16033984D01*
X3305801Y-16033984D02*
X3286753Y-16024460D01*
X3286753Y-16024460D02*
X3277229Y-16014936D01*
X3277229Y-16014936D02*
X3267706Y-15995888D01*
X3267706Y-15995888D02*
X3258182Y-15957793D01*
X3258182Y-15957793D02*
X3258182Y-15910174D01*
X3258182Y-15910174D02*
X3267706Y-15872079D01*
X3267706Y-15872079D02*
X3277229Y-15853031D01*
X3277229Y-15853031D02*
X3286753Y-15843508D01*
X3286753Y-15843508D02*
X3305801Y-15833984D01*
X3610563Y-16033984D02*
X3610563Y-15833984D01*
X3696277Y-16033984D02*
X3696277Y-15929222D01*
X3696277Y-15929222D02*
X3686753Y-15910174D01*
X3686753Y-15910174D02*
X3667706Y-15900650D01*
X3667706Y-15900650D02*
X3639134Y-15900650D01*
X3639134Y-15900650D02*
X3620087Y-15910174D01*
X3620087Y-15910174D02*
X3610563Y-15919698D01*
X3820087Y-16033984D02*
X3801039Y-16024460D01*
X3801039Y-16024460D02*
X3791515Y-16014936D01*
X3791515Y-16014936D02*
X3781991Y-15995888D01*
X3781991Y-15995888D02*
X3781991Y-15938746D01*
X3781991Y-15938746D02*
X3791515Y-15919698D01*
X3791515Y-15919698D02*
X3801039Y-15910174D01*
X3801039Y-15910174D02*
X3820087Y-15900650D01*
X3820087Y-15900650D02*
X3848658Y-15900650D01*
X3848658Y-15900650D02*
X3867706Y-15910174D01*
X3867706Y-15910174D02*
X3877230Y-15919698D01*
X3877230Y-15919698D02*
X3886753Y-15938746D01*
X3886753Y-15938746D02*
X3886753Y-15995888D01*
X3886753Y-15995888D02*
X3877230Y-16014936D01*
X3877230Y-16014936D02*
X3867706Y-16024460D01*
X3867706Y-16024460D02*
X3848658Y-16033984D01*
X3848658Y-16033984D02*
X3820087Y-16033984D01*
X4001039Y-16033984D02*
X3981991Y-16024460D01*
X3981991Y-16024460D02*
X3972468Y-16005412D01*
X3972468Y-16005412D02*
X3972468Y-15833984D01*
X4153420Y-16024460D02*
X4134372Y-16033984D01*
X4134372Y-16033984D02*
X4096277Y-16033984D01*
X4096277Y-16033984D02*
X4077230Y-16024460D01*
X4077230Y-16024460D02*
X4067706Y-16005412D01*
X4067706Y-16005412D02*
X4067706Y-15929222D01*
X4067706Y-15929222D02*
X4077230Y-15910174D01*
X4077230Y-15910174D02*
X4096277Y-15900650D01*
X4096277Y-15900650D02*
X4134372Y-15900650D01*
X4134372Y-15900650D02*
X4153420Y-15910174D01*
X4153420Y-15910174D02*
X4162944Y-15929222D01*
X4162944Y-15929222D02*
X4162944Y-15948269D01*
X4162944Y-15948269D02*
X4067706Y-15967317D01*
X4239134Y-16024460D02*
X4258182Y-16033984D01*
X4258182Y-16033984D02*
X4296277Y-16033984D01*
X4296277Y-16033984D02*
X4315325Y-16024460D01*
X4315325Y-16024460D02*
X4324849Y-16005412D01*
X4324849Y-16005412D02*
X4324849Y-15995888D01*
X4324849Y-15995888D02*
X4315325Y-15976841D01*
X4315325Y-15976841D02*
X4296277Y-15967317D01*
X4296277Y-15967317D02*
X4267706Y-15967317D01*
X4267706Y-15967317D02*
X4248658Y-15957793D01*
X4248658Y-15957793D02*
X4239134Y-15938746D01*
X4239134Y-15938746D02*
X4239134Y-15929222D01*
X4239134Y-15929222D02*
X4248658Y-15910174D01*
X4248658Y-15910174D02*
X4267706Y-15900650D01*
X4267706Y-15900650D02*
X4296277Y-15900650D01*
X4296277Y-15900650D02*
X4315325Y-15910174D01*
X4391515Y-16110174D02*
X4401039Y-16100650D01*
X4401039Y-16100650D02*
X4420087Y-16072079D01*
X4420087Y-16072079D02*
X4429611Y-16053031D01*
X4429611Y-16053031D02*
X4439134Y-16024460D01*
X4439134Y-16024460D02*
X4448658Y-15976841D01*
X4448658Y-15976841D02*
X4448658Y-15938746D01*
X4448658Y-15938746D02*
X4439134Y-15891127D01*
X4439134Y-15891127D02*
X4429611Y-15862555D01*
X4429611Y-15862555D02*
X4420087Y-15843508D01*
X4420087Y-15843508D02*
X4401039Y-15814936D01*
X4401039Y-15814936D02*
X4391515Y-15805412D01*
D12*
X-814500Y-16256500D02*
X-764500Y-16206500D01*
X-814500Y-16156500D01*
X-864500Y-16206500D01*
X-814500Y-16256500D01*
D11*
X-398961Y-16297984D02*
X-513247Y-16297984D01*
X-456104Y-16297984D02*
X-456104Y-16097984D01*
X-456104Y-16097984D02*
X-475152Y-16126555D01*
X-475152Y-16126555D02*
X-494199Y-16145603D01*
X-494199Y-16145603D02*
X-513247Y-16155127D01*
X-313247Y-16278936D02*
X-303723Y-16288460D01*
X-303723Y-16288460D02*
X-313247Y-16297984D01*
X-313247Y-16297984D02*
X-322771Y-16288460D01*
X-322771Y-16288460D02*
X-313247Y-16278936D01*
X-313247Y-16278936D02*
X-313247Y-16297984D01*
X-179914Y-16097984D02*
X-160866Y-16097984D01*
X-160866Y-16097984D02*
X-141818Y-16107508D01*
X-141818Y-16107508D02*
X-132295Y-16117031D01*
X-132295Y-16117031D02*
X-122771Y-16136079D01*
X-122771Y-16136079D02*
X-113247Y-16174174D01*
X-113247Y-16174174D02*
X-113247Y-16221793D01*
X-113247Y-16221793D02*
X-122771Y-16259888D01*
X-122771Y-16259888D02*
X-132295Y-16278936D01*
X-132295Y-16278936D02*
X-141818Y-16288460D01*
X-141818Y-16288460D02*
X-160866Y-16297984D01*
X-160866Y-16297984D02*
X-179914Y-16297984D01*
X-179914Y-16297984D02*
X-198961Y-16288460D01*
X-198961Y-16288460D02*
X-208485Y-16278936D01*
X-208485Y-16278936D02*
X-218009Y-16259888D01*
X-218009Y-16259888D02*
X-227533Y-16221793D01*
X-227533Y-16221793D02*
X-227533Y-16174174D01*
X-227533Y-16174174D02*
X-218009Y-16136079D01*
X-218009Y-16136079D02*
X-208485Y-16117031D01*
X-208485Y-16117031D02*
X-198961Y-16107508D01*
X-198961Y-16107508D02*
X-179914Y-16097984D01*
X10563Y-16097984D02*
X29610Y-16097984D01*
X29610Y-16097984D02*
X48658Y-16107508D01*
X48658Y-16107508D02*
X58182Y-16117031D01*
X58182Y-16117031D02*
X67705Y-16136079D01*
X67705Y-16136079D02*
X77229Y-16174174D01*
X77229Y-16174174D02*
X77229Y-16221793D01*
X77229Y-16221793D02*
X67705Y-16259888D01*
X67705Y-16259888D02*
X58182Y-16278936D01*
X58182Y-16278936D02*
X48658Y-16288460D01*
X48658Y-16288460D02*
X29610Y-16297984D01*
X29610Y-16297984D02*
X10563Y-16297984D01*
X10563Y-16297984D02*
X-8485Y-16288460D01*
X-8485Y-16288460D02*
X-18009Y-16278936D01*
X-18009Y-16278936D02*
X-27533Y-16259888D01*
X-27533Y-16259888D02*
X-37056Y-16221793D01*
X-37056Y-16221793D02*
X-37056Y-16174174D01*
X-37056Y-16174174D02*
X-27533Y-16136079D01*
X-27533Y-16136079D02*
X-18009Y-16117031D01*
X-18009Y-16117031D02*
X-8485Y-16107508D01*
X-8485Y-16107508D02*
X10563Y-16097984D01*
X201039Y-16097984D02*
X220086Y-16097984D01*
X220086Y-16097984D02*
X239134Y-16107508D01*
X239134Y-16107508D02*
X248658Y-16117031D01*
X248658Y-16117031D02*
X258182Y-16136079D01*
X258182Y-16136079D02*
X267705Y-16174174D01*
X267705Y-16174174D02*
X267705Y-16221793D01*
X267705Y-16221793D02*
X258182Y-16259888D01*
X258182Y-16259888D02*
X248658Y-16278936D01*
X248658Y-16278936D02*
X239134Y-16288460D01*
X239134Y-16288460D02*
X220086Y-16297984D01*
X220086Y-16297984D02*
X201039Y-16297984D01*
X201039Y-16297984D02*
X181991Y-16288460D01*
X181991Y-16288460D02*
X172467Y-16278936D01*
X172467Y-16278936D02*
X162944Y-16259888D01*
X162944Y-16259888D02*
X153420Y-16221793D01*
X153420Y-16221793D02*
X153420Y-16174174D01*
X153420Y-16174174D02*
X162944Y-16136079D01*
X162944Y-16136079D02*
X172467Y-16117031D01*
X172467Y-16117031D02*
X181991Y-16107508D01*
X181991Y-16107508D02*
X201039Y-16097984D01*
X353420Y-16297984D02*
X353420Y-16164650D01*
X353420Y-16183698D02*
X362943Y-16174174D01*
X362943Y-16174174D02*
X381991Y-16164650D01*
X381991Y-16164650D02*
X410563Y-16164650D01*
X410563Y-16164650D02*
X429610Y-16174174D01*
X429610Y-16174174D02*
X439134Y-16193222D01*
X439134Y-16193222D02*
X439134Y-16297984D01*
X439134Y-16193222D02*
X448658Y-16174174D01*
X448658Y-16174174D02*
X467705Y-16164650D01*
X467705Y-16164650D02*
X496277Y-16164650D01*
X496277Y-16164650D02*
X515324Y-16174174D01*
X515324Y-16174174D02*
X524848Y-16193222D01*
X524848Y-16193222D02*
X524848Y-16297984D01*
X620086Y-16297984D02*
X620086Y-16164650D01*
X620086Y-16183698D02*
X629610Y-16174174D01*
X629610Y-16174174D02*
X648658Y-16164650D01*
X648658Y-16164650D02*
X677229Y-16164650D01*
X677229Y-16164650D02*
X696277Y-16174174D01*
X696277Y-16174174D02*
X705801Y-16193222D01*
X705801Y-16193222D02*
X705801Y-16297984D01*
X705801Y-16193222D02*
X715324Y-16174174D01*
X715324Y-16174174D02*
X734372Y-16164650D01*
X734372Y-16164650D02*
X762943Y-16164650D01*
X762943Y-16164650D02*
X781991Y-16174174D01*
X781991Y-16174174D02*
X791515Y-16193222D01*
X791515Y-16193222D02*
X791515Y-16297984D01*
X1181991Y-16088460D02*
X1010563Y-16345603D01*
X1439134Y-16097984D02*
X1458182Y-16097984D01*
X1458182Y-16097984D02*
X1477229Y-16107508D01*
X1477229Y-16107508D02*
X1486753Y-16117031D01*
X1486753Y-16117031D02*
X1496277Y-16136079D01*
X1496277Y-16136079D02*
X1505801Y-16174174D01*
X1505801Y-16174174D02*
X1505801Y-16221793D01*
X1505801Y-16221793D02*
X1496277Y-16259888D01*
X1496277Y-16259888D02*
X1486753Y-16278936D01*
X1486753Y-16278936D02*
X1477229Y-16288460D01*
X1477229Y-16288460D02*
X1458182Y-16297984D01*
X1458182Y-16297984D02*
X1439134Y-16297984D01*
X1439134Y-16297984D02*
X1420086Y-16288460D01*
X1420086Y-16288460D02*
X1410563Y-16278936D01*
X1410563Y-16278936D02*
X1401039Y-16259888D01*
X1401039Y-16259888D02*
X1391515Y-16221793D01*
X1391515Y-16221793D02*
X1391515Y-16174174D01*
X1391515Y-16174174D02*
X1401039Y-16136079D01*
X1401039Y-16136079D02*
X1410563Y-16117031D01*
X1410563Y-16117031D02*
X1420086Y-16107508D01*
X1420086Y-16107508D02*
X1439134Y-16097984D01*
X1591515Y-16278936D02*
X1601039Y-16288460D01*
X1601039Y-16288460D02*
X1591515Y-16297984D01*
X1591515Y-16297984D02*
X1581991Y-16288460D01*
X1581991Y-16288460D02*
X1591515Y-16278936D01*
X1591515Y-16278936D02*
X1591515Y-16297984D01*
X1724848Y-16097984D02*
X1743896Y-16097984D01*
X1743896Y-16097984D02*
X1762944Y-16107508D01*
X1762944Y-16107508D02*
X1772467Y-16117031D01*
X1772467Y-16117031D02*
X1781991Y-16136079D01*
X1781991Y-16136079D02*
X1791515Y-16174174D01*
X1791515Y-16174174D02*
X1791515Y-16221793D01*
X1791515Y-16221793D02*
X1781991Y-16259888D01*
X1781991Y-16259888D02*
X1772467Y-16278936D01*
X1772467Y-16278936D02*
X1762944Y-16288460D01*
X1762944Y-16288460D02*
X1743896Y-16297984D01*
X1743896Y-16297984D02*
X1724848Y-16297984D01*
X1724848Y-16297984D02*
X1705801Y-16288460D01*
X1705801Y-16288460D02*
X1696277Y-16278936D01*
X1696277Y-16278936D02*
X1686753Y-16259888D01*
X1686753Y-16259888D02*
X1677229Y-16221793D01*
X1677229Y-16221793D02*
X1677229Y-16174174D01*
X1677229Y-16174174D02*
X1686753Y-16136079D01*
X1686753Y-16136079D02*
X1696277Y-16117031D01*
X1696277Y-16117031D02*
X1705801Y-16107508D01*
X1705801Y-16107508D02*
X1724848Y-16097984D01*
X1858182Y-16097984D02*
X1981991Y-16097984D01*
X1981991Y-16097984D02*
X1915325Y-16174174D01*
X1915325Y-16174174D02*
X1943896Y-16174174D01*
X1943896Y-16174174D02*
X1962944Y-16183698D01*
X1962944Y-16183698D02*
X1972467Y-16193222D01*
X1972467Y-16193222D02*
X1981991Y-16212269D01*
X1981991Y-16212269D02*
X1981991Y-16259888D01*
X1981991Y-16259888D02*
X1972467Y-16278936D01*
X1972467Y-16278936D02*
X1962944Y-16288460D01*
X1962944Y-16288460D02*
X1943896Y-16297984D01*
X1943896Y-16297984D02*
X1886753Y-16297984D01*
X1886753Y-16297984D02*
X1867706Y-16288460D01*
X1867706Y-16288460D02*
X1858182Y-16278936D01*
X2077229Y-16297984D02*
X2115325Y-16297984D01*
X2115325Y-16297984D02*
X2134372Y-16288460D01*
X2134372Y-16288460D02*
X2143896Y-16278936D01*
X2143896Y-16278936D02*
X2162944Y-16250365D01*
X2162944Y-16250365D02*
X2172468Y-16212269D01*
X2172468Y-16212269D02*
X2172468Y-16136079D01*
X2172468Y-16136079D02*
X2162944Y-16117031D01*
X2162944Y-16117031D02*
X2153420Y-16107508D01*
X2153420Y-16107508D02*
X2134372Y-16097984D01*
X2134372Y-16097984D02*
X2096277Y-16097984D01*
X2096277Y-16097984D02*
X2077229Y-16107508D01*
X2077229Y-16107508D02*
X2067706Y-16117031D01*
X2067706Y-16117031D02*
X2058182Y-16136079D01*
X2058182Y-16136079D02*
X2058182Y-16183698D01*
X2058182Y-16183698D02*
X2067706Y-16202746D01*
X2067706Y-16202746D02*
X2077229Y-16212269D01*
X2077229Y-16212269D02*
X2096277Y-16221793D01*
X2096277Y-16221793D02*
X2134372Y-16221793D01*
X2134372Y-16221793D02*
X2153420Y-16212269D01*
X2153420Y-16212269D02*
X2162944Y-16202746D01*
X2162944Y-16202746D02*
X2172468Y-16183698D01*
X2343896Y-16164650D02*
X2343896Y-16297984D01*
X2296277Y-16088460D02*
X2248658Y-16231317D01*
X2248658Y-16231317D02*
X2372468Y-16231317D01*
X2439134Y-16097984D02*
X2439134Y-16136079D01*
X2515325Y-16097984D02*
X2515325Y-16136079D01*
X2810563Y-16374174D02*
X2801039Y-16364650D01*
X2801039Y-16364650D02*
X2781991Y-16336079D01*
X2781991Y-16336079D02*
X2772468Y-16317031D01*
X2772468Y-16317031D02*
X2762944Y-16288460D01*
X2762944Y-16288460D02*
X2753420Y-16240841D01*
X2753420Y-16240841D02*
X2753420Y-16202746D01*
X2753420Y-16202746D02*
X2762944Y-16155127D01*
X2762944Y-16155127D02*
X2772468Y-16126555D01*
X2772468Y-16126555D02*
X2781991Y-16107508D01*
X2781991Y-16107508D02*
X2801039Y-16078936D01*
X2801039Y-16078936D02*
X2810563Y-16069412D01*
X2972468Y-16164650D02*
X2972468Y-16297984D01*
X2924848Y-16088460D02*
X2877229Y-16231317D01*
X2877229Y-16231317D02*
X3001039Y-16231317D01*
X3162944Y-16097984D02*
X3124848Y-16097984D01*
X3124848Y-16097984D02*
X3105801Y-16107508D01*
X3105801Y-16107508D02*
X3096277Y-16117031D01*
X3096277Y-16117031D02*
X3077229Y-16145603D01*
X3077229Y-16145603D02*
X3067706Y-16183698D01*
X3067706Y-16183698D02*
X3067706Y-16259888D01*
X3067706Y-16259888D02*
X3077229Y-16278936D01*
X3077229Y-16278936D02*
X3086753Y-16288460D01*
X3086753Y-16288460D02*
X3105801Y-16297984D01*
X3105801Y-16297984D02*
X3143896Y-16297984D01*
X3143896Y-16297984D02*
X3162944Y-16288460D01*
X3162944Y-16288460D02*
X3172468Y-16278936D01*
X3172468Y-16278936D02*
X3181991Y-16259888D01*
X3181991Y-16259888D02*
X3181991Y-16212269D01*
X3181991Y-16212269D02*
X3172468Y-16193222D01*
X3172468Y-16193222D02*
X3162944Y-16183698D01*
X3162944Y-16183698D02*
X3143896Y-16174174D01*
X3143896Y-16174174D02*
X3105801Y-16174174D01*
X3105801Y-16174174D02*
X3086753Y-16183698D01*
X3086753Y-16183698D02*
X3077229Y-16193222D01*
X3077229Y-16193222D02*
X3067706Y-16212269D01*
X3420087Y-16297984D02*
X3420087Y-16097984D01*
X3505801Y-16297984D02*
X3505801Y-16193222D01*
X3505801Y-16193222D02*
X3496277Y-16174174D01*
X3496277Y-16174174D02*
X3477230Y-16164650D01*
X3477230Y-16164650D02*
X3448658Y-16164650D01*
X3448658Y-16164650D02*
X3429610Y-16174174D01*
X3429610Y-16174174D02*
X3420087Y-16183698D01*
X3629610Y-16297984D02*
X3610563Y-16288460D01*
X3610563Y-16288460D02*
X3601039Y-16278936D01*
X3601039Y-16278936D02*
X3591515Y-16259888D01*
X3591515Y-16259888D02*
X3591515Y-16202746D01*
X3591515Y-16202746D02*
X3601039Y-16183698D01*
X3601039Y-16183698D02*
X3610563Y-16174174D01*
X3610563Y-16174174D02*
X3629610Y-16164650D01*
X3629610Y-16164650D02*
X3658182Y-16164650D01*
X3658182Y-16164650D02*
X3677230Y-16174174D01*
X3677230Y-16174174D02*
X3686753Y-16183698D01*
X3686753Y-16183698D02*
X3696277Y-16202746D01*
X3696277Y-16202746D02*
X3696277Y-16259888D01*
X3696277Y-16259888D02*
X3686753Y-16278936D01*
X3686753Y-16278936D02*
X3677230Y-16288460D01*
X3677230Y-16288460D02*
X3658182Y-16297984D01*
X3658182Y-16297984D02*
X3629610Y-16297984D01*
X3810563Y-16297984D02*
X3791515Y-16288460D01*
X3791515Y-16288460D02*
X3781991Y-16269412D01*
X3781991Y-16269412D02*
X3781991Y-16097984D01*
X3962944Y-16288460D02*
X3943896Y-16297984D01*
X3943896Y-16297984D02*
X3905801Y-16297984D01*
X3905801Y-16297984D02*
X3886753Y-16288460D01*
X3886753Y-16288460D02*
X3877230Y-16269412D01*
X3877230Y-16269412D02*
X3877230Y-16193222D01*
X3877230Y-16193222D02*
X3886753Y-16174174D01*
X3886753Y-16174174D02*
X3905801Y-16164650D01*
X3905801Y-16164650D02*
X3943896Y-16164650D01*
X3943896Y-16164650D02*
X3962944Y-16174174D01*
X3962944Y-16174174D02*
X3972468Y-16193222D01*
X3972468Y-16193222D02*
X3972468Y-16212269D01*
X3972468Y-16212269D02*
X3877230Y-16231317D01*
X4048658Y-16288460D02*
X4067706Y-16297984D01*
X4067706Y-16297984D02*
X4105801Y-16297984D01*
X4105801Y-16297984D02*
X4124849Y-16288460D01*
X4124849Y-16288460D02*
X4134372Y-16269412D01*
X4134372Y-16269412D02*
X4134372Y-16259888D01*
X4134372Y-16259888D02*
X4124849Y-16240841D01*
X4124849Y-16240841D02*
X4105801Y-16231317D01*
X4105801Y-16231317D02*
X4077230Y-16231317D01*
X4077230Y-16231317D02*
X4058182Y-16221793D01*
X4058182Y-16221793D02*
X4048658Y-16202746D01*
X4048658Y-16202746D02*
X4048658Y-16193222D01*
X4048658Y-16193222D02*
X4058182Y-16174174D01*
X4058182Y-16174174D02*
X4077230Y-16164650D01*
X4077230Y-16164650D02*
X4105801Y-16164650D01*
X4105801Y-16164650D02*
X4124849Y-16174174D01*
X4201039Y-16374174D02*
X4210563Y-16364650D01*
X4210563Y-16364650D02*
X4229611Y-16336079D01*
X4229611Y-16336079D02*
X4239134Y-16317031D01*
X4239134Y-16317031D02*
X4248658Y-16288460D01*
X4248658Y-16288460D02*
X4258182Y-16240841D01*
X4258182Y-16240841D02*
X4258182Y-16202746D01*
X4258182Y-16202746D02*
X4248658Y-16155127D01*
X4248658Y-16155127D02*
X4239134Y-16126555D01*
X4239134Y-16126555D02*
X4229611Y-16107508D01*
X4229611Y-16107508D02*
X4210563Y-16078936D01*
X4210563Y-16078936D02*
X4201039Y-16069412D01*
M02*
