M48
; DRILL file KiCad 10.0.6 date 2026-09-14T13:22:56
; FORMAT={-:-/ absolute / metric / decimal}
; #@! TF.CreationDate,2026-09-14T13:22:56+02:00
; #@! TF.GenerationSoftware,Kicad,Pcbnew,10.0.6
; #@! TF.FileFunction,Plated,1,2,PTH
FMAT,2
METRIC
; #@! TA.AperFunction,Plated,PTH,ViaDrill
T1C0.200
; #@! TA.AperFunction,Plated,PTH,ViaDrill
T2C0.300
; #@! TA.AperFunction,Plated,PTH,ViaDrill
T3C0.400
; #@! TA.AperFunction,Plated,PTH,ComponentDrill
T4C0.800
; #@! TA.AperFunction,Plated,PTH,ComponentDrill
T5C1.000
%
G90
G05
T1
X110.5Y-59.6
X111.8Y-48.8
X113.4Y-59.6
X115.8Y-46.1
X115.8Y-46.1
X116.6Y-44.5
X116.9Y-57.0
X117.1Y-46.9
X118.2Y-41.9
X119.0Y-43.2
X119.38Y-46.08
X120.4Y-54.7
X121.5Y-57.3
X123.0Y-58.1
X125.7Y-58.1
X129.5Y-55.5
X140.1Y-56.8
X140.1Y-56.8
X141.2Y-49.7
X143.1Y-47.1
X143.1Y-49.8
X155.1Y-77.8
X163.2Y-68.4
X164.5Y-67.1
X171.1Y-56.7
X174.6Y-59.7
X175.7Y-55.7
X177.2Y-49.5
X177.9Y-49.5
X178.6Y-51.9
X178.7Y-57.0
X182.2Y-61.6
X184.1Y-64.6
X185.4Y-39.6
X195.6Y-94.9
X195.9Y-75.8
X198.1Y-56.9
X252.8Y-54.8
X252.8Y-93.0
X271.5Y-76.2
X271.5Y-95.1
T2
X120.38Y-49.08
X143.38Y-34.08
X216.0Y-54.8
T3
X-4.1Y-63.7
X-3.8Y-44.7
X-3.7Y-82.6
X14.1Y-118.5
X14.2Y-61.3
X14.2Y-80.2
X14.2Y-99.4
X14.6Y-42.1
X15.9Y-47.7
X15.9Y-66.3
X16.0Y-85.6
X16.0Y-104.6
X32.9Y-61.2
X32.9Y-80.3
X33.1Y-98.5
X33.1Y-118.0
X33.2Y-40.8
X34.1Y-99.54
X34.2Y-80.7
X34.3Y-42.8
X34.3Y-61.3
X51.9Y-117.6
X52.0Y-78.2
X52.0Y-97.4
X52.3Y-39.6
X52.3Y-59.6
X53.1Y-78.7
X53.2Y-40.7
X53.5Y-59.7
X53.9Y-100.2
X70.9Y-117.1
X71.0Y-37.9
X71.0Y-95.3
X71.2Y-76.4
X71.5Y-57.4
X72.2Y-42.4
X72.5Y-82.7
X73.1Y-64.2
X73.4Y-102.8
X89.395Y-115.9
X89.8Y-39.6
X89.8Y-59.4
X89.8Y-78.4
X89.8Y-97.3
X91.1Y-101.1
X92.1Y-47.7
X92.1Y-66.2
X92.1Y-85.2
X109.1Y-41.6
X109.1Y-60.9
X109.1Y-79.9
X109.1Y-99.0
X109.359Y-124.7
X114.48Y-55.58
X114.48Y-62.08
X119.78Y-64.88
X140.58Y-81.08
X142.08Y-59.58
X142.08Y-62.08
X201.0Y-121.2
X205.2Y-99.0
X205.4Y-79.9
X205.6Y-61.0
X205.7Y-40.2
X223.2Y-117.6
X224.1Y-39.5
X224.4Y-97.0
X224.5Y-59.2
X224.6Y-77.9
X243.1Y-76.1
X243.2Y-95.1
X243.3Y-116.5
X243.6Y-37.3
X243.6Y-57.1
X262.4Y-117.2
X262.5Y-96.8
X262.6Y-59.1
X262.6Y-77.9
X262.7Y-40.0
X281.3Y-40.8
X281.5Y-60.92
X281.7Y-80.4
X281.7Y-99.0
X281.7Y-118.4
X301.0Y-40.7
T4
X1.95Y-76.08
X1.95Y-133.08
X2.14Y-113.08
X2.18Y-57.08
X2.83Y-95.08
X9.57Y-76.08
X9.57Y-133.08
X9.76Y-113.08
X9.8Y-57.08
X10.45Y-95.08
X19.95Y-57.08
X19.95Y-113.08
X20.95Y-76.08
X20.95Y-95.08
X20.95Y-133.08
X27.57Y-57.08
X27.57Y-113.08
X28.57Y-76.08
X28.57Y-95.08
X28.57Y-133.08
X39.95Y-55.08
X39.95Y-74.08
X39.95Y-93.08
X39.95Y-112.08
X39.95Y-132.08
X47.57Y-55.08
X47.57Y-74.08
X47.57Y-93.08
X47.57Y-112.08
X47.57Y-132.08
X58.95Y-53.08
X58.95Y-72.08
X58.95Y-91.08
X58.95Y-110.08
X58.95Y-132.08
X66.57Y-53.08
X66.57Y-72.08
X66.57Y-91.08
X66.57Y-110.08
X66.57Y-132.08
X77.008Y-133.418
X77.95Y-55.08
X77.95Y-74.08
X77.95Y-93.08
X77.95Y-112.08
X84.512Y-134.742
X85.57Y-55.08
X85.57Y-74.08
X85.57Y-93.08
X85.57Y-112.08
X96.95Y-57.08
X96.95Y-76.08
X96.95Y-95.08
X96.95Y-114.08
X104.57Y-57.08
X104.57Y-76.08
X104.57Y-95.08
X104.57Y-114.08
X109.15Y-137.533
X112.37Y-130.627
X193.19Y-57.0
X193.19Y-76.0
X193.19Y-95.0
X193.19Y-114.0
X197.7Y-139.905
X200.81Y-57.0
X200.81Y-76.0
X200.81Y-95.0
X200.81Y-114.0
X204.3Y-136.095
X212.19Y-55.0
X212.19Y-74.0
X212.19Y-93.0
X212.19Y-112.0
X213.248Y-134.662
X219.81Y-55.0
X219.81Y-74.0
X219.81Y-93.0
X219.81Y-112.0
X220.752Y-133.338
X231.19Y-53.0
X231.19Y-72.0
X231.19Y-91.0
X231.19Y-110.0
X231.19Y-132.0
X238.81Y-53.0
X238.81Y-72.0
X238.81Y-91.0
X238.81Y-110.0
X238.81Y-132.0
X250.19Y-55.0
X250.19Y-74.0
X250.19Y-93.0
X250.19Y-112.0
X250.19Y-132.0
X257.81Y-55.0
X257.81Y-74.0
X257.81Y-93.0
X257.81Y-112.0
X257.81Y-132.0
X269.19Y-76.0
X269.19Y-95.0
X269.19Y-133.0
X270.19Y-57.0
X270.19Y-113.0
X276.81Y-76.0
X276.81Y-95.0
X276.81Y-133.0
X277.81Y-57.0
X277.81Y-113.0
X287.31Y-95.0
X287.96Y-57.0
X288.0Y-113.0
X288.19Y-76.0
X288.19Y-133.0
X294.93Y-95.0
X295.58Y-57.0
X295.62Y-113.0
X295.81Y-76.0
X295.81Y-133.0
T5
X123.14Y-33.08
X123.14Y-35.62
X123.14Y-38.16
X123.14Y-40.7
X123.14Y-43.24
X123.14Y-45.78
X123.14Y-48.32
X123.14Y-50.86
X123.14Y-53.4
X125.68Y-53.4
X128.22Y-53.4
X130.76Y-53.4
X133.3Y-53.4
X135.84Y-53.4
X138.38Y-33.08
X138.38Y-35.62
X138.38Y-38.16
X138.38Y-40.7
X138.38Y-43.24
X138.38Y-45.78
X138.38Y-48.32
X138.38Y-50.86
X138.38Y-53.4
X159.14Y-33.0
X159.14Y-35.54
X159.14Y-38.08
X159.14Y-40.62
X159.14Y-43.16
X159.14Y-45.7
X159.14Y-48.24
X159.14Y-50.78
X159.14Y-53.32
X161.68Y-53.32
X164.22Y-53.32
X166.76Y-53.32
X169.3Y-53.32
X171.84Y-53.32
X174.38Y-33.0
X174.38Y-35.54
X174.38Y-38.08
X174.38Y-40.62
X174.38Y-43.16
X174.38Y-45.7
X174.38Y-48.24
X174.38Y-50.78
X174.38Y-53.32
M30
